<svg id="svg" version="1.1" width="400" height="87.99999999999999" viewBox="0 0 400 87.99999999999999" xmlns="http://www.w3.org/2000/svg" xmlns:xlink="http://www.w3.org/1999/xlink" ><g id="svgg"><path id="path0" d="M274.288 0.667 C 273.945 0.936,273.612 1.000,272.547 1.000 C 271.460 1.000,271.167 1.058,270.872 1.333 C 270.581 1.604,270.284 1.667,269.279 1.667 C 268.297 1.667,267.958 1.735,267.621 2.000 C 267.323 2.234,266.945 2.333,266.347 2.333 C 265.703 2.333,265.428 2.414,265.211 2.667 C 265.044 2.862,264.717 3.001,264.421 3.002 C 263.664 3.006,263.167 3.178,263.167 3.436 C 263.167 3.604,262.920 3.667,262.251 3.667 C 261.517 3.667,261.295 3.732,261.128 4.000 C 260.987 4.226,260.739 4.333,260.361 4.333 C 259.942 4.333,259.780 4.417,259.715 4.667 C 259.647 4.928,259.488 5.000,258.981 5.000 C 258.556 5.000,258.219 5.114,258.000 5.333 C 257.815 5.518,257.444 5.667,257.168 5.667 C 256.850 5.667,256.594 5.787,256.461 6.000 C 256.335 6.202,256.073 6.333,255.795 6.333 C 255.517 6.333,255.254 6.465,255.128 6.667 C 255.002 6.869,254.739 7.000,254.461 7.000 C 254.183 7.000,253.921 7.131,253.795 7.333 C 253.680 7.517,253.455 7.667,253.293 7.667 C 253.132 7.667,252.850 7.817,252.667 8.000 C 252.483 8.183,252.183 8.333,252.000 8.333 C 251.778 8.333,251.667 8.444,251.667 8.667 C 251.667 8.938,251.556 9.000,251.068 9.000 C 250.609 9.000,250.448 9.078,250.382 9.333 C 250.333 9.518,250.154 9.667,249.981 9.667 C 249.808 9.667,249.517 9.817,249.333 10.000 C 249.150 10.183,248.858 10.333,248.684 10.333 C 248.511 10.333,248.324 10.449,248.270 10.591 C 248.216 10.733,247.945 10.928,247.669 11.024 C 247.393 11.120,247.167 11.269,247.167 11.354 C 247.167 11.439,246.979 11.580,246.750 11.667 C 246.521 11.754,246.333 11.939,246.333 12.079 C 246.333 12.222,246.188 12.333,246.000 12.333 C 245.778 12.333,245.667 12.444,245.667 12.667 C 245.667 12.924,245.556 13.000,245.176 13.000 C 244.893 13.000,244.593 13.128,244.468 13.303 C 244.348 13.469,244.119 13.654,243.958 13.714 C 243.798 13.774,243.667 13.938,243.667 14.078 C 243.667 14.222,243.522 14.333,243.333 14.333 C 243.111 14.333,243.000 14.444,243.000 14.667 C 243.000 14.889,242.889 15.000,242.667 15.000 C 242.444 15.000,242.333 15.111,242.333 15.333 C 242.333 15.592,242.222 15.667,241.835 15.667 C 241.517 15.667,241.261 15.787,241.128 16.000 C 240.843 16.456,239.789 16.456,239.333 16.000 C 239.072 15.739,238.778 15.667,237.977 15.667 C 237.194 15.667,236.903 15.598,236.740 15.375 C 236.562 15.130,236.196 15.074,234.472 15.027 C 232.707 14.979,232.375 14.926,232.119 14.652 C 231.646 14.147,222.042 14.160,221.583 14.667 C 221.315 14.963,221.070 15.000,219.391 15.000 C 217.722 15.000,217.461 15.039,217.167 15.333 C 216.902 15.598,216.611 15.667,215.751 15.667 C 214.850 15.667,214.635 15.722,214.461 16.000 C 214.301 16.257,214.073 16.333,213.461 16.333 C 212.850 16.333,212.622 16.409,212.461 16.667 C 212.301 16.924,212.073 17.000,211.461 17.000 C 210.850 17.000,210.622 17.076,210.461 17.333 C 210.201 17.751,208.167 17.842,208.167 17.436 C 208.167 17.174,207.667 17.006,206.875 17.002 C 206.558 17.001,206.195 16.862,206.000 16.667 C 205.781 16.448,205.444 16.333,205.019 16.333 C 204.512 16.333,204.353 16.261,204.285 16.000 C 204.211 15.718,204.058 15.667,203.285 15.667 C 202.512 15.667,202.359 15.615,202.285 15.333 C 202.211 15.051,202.058 15.000,201.285 15.000 C 200.512 15.000,200.359 14.949,200.285 14.667 C 200.212 14.386,200.058 14.333,199.306 14.333 C 198.594 14.333,198.371 14.266,198.205 14.000 C 198.030 13.719,197.817 13.667,196.851 13.667 C 195.846 13.667,195.695 13.626,195.618 13.333 C 195.545 13.052,195.391 13.000,194.639 13.000 C 193.927 13.000,193.705 12.933,193.539 12.667 C 193.364 12.387,193.150 12.333,192.205 12.333 C 191.261 12.333,191.047 12.280,190.872 12.000 C 190.696 11.718,190.483 11.667,189.499 11.667 C 188.556 11.667,188.270 11.603,188.000 11.333 C 187.739 11.072,187.444 11.000,186.643 11.000 C 185.861 11.000,185.570 10.931,185.407 10.708 C 185.231 10.467,184.870 10.407,183.324 10.360 C 181.764 10.312,181.396 10.250,181.112 9.985 C 180.827 9.720,180.515 9.667,179.238 9.667 C 177.846 9.667,177.698 9.636,177.618 9.333 C 177.538 9.025,177.391 9.000,175.659 9.000 C 174.068 9.000,173.755 8.956,173.574 8.708 C 173.386 8.451,172.973 8.410,170.076 8.362 C 167.111 8.313,166.758 8.276,166.448 7.987 C 166.127 7.688,165.815 7.667,161.796 7.667 C 157.974 7.667,157.438 7.634,157.043 7.375 C 156.364 6.930,145.871 6.930,145.379 7.375 C 145.090 7.637,144.616 7.667,140.695 7.667 C 136.601 7.667,136.314 7.686,136.010 7.990 C 135.716 8.284,135.391 8.318,132.444 8.365 C 129.635 8.410,129.158 8.456,128.879 8.708 C 128.615 8.948,128.239 9.000,126.779 9.000 C 125.222 9.000,124.958 9.042,124.667 9.333 C 124.386 9.614,124.111 9.667,122.915 9.667 C 121.703 9.667,121.455 9.715,121.211 10.000 C 120.960 10.293,120.720 10.333,119.211 10.333 C 117.703 10.333,117.462 10.373,117.211 10.667 C 116.978 10.939,116.720 11.000,115.806 11.000 C 114.898 11.000,114.644 11.059,114.466 11.314 C 114.288 11.568,113.983 11.640,112.858 11.691 C 111.782 11.740,111.423 11.819,111.258 12.044 C 111.102 12.258,110.808 12.333,110.132 12.333 C 109.430 12.333,109.148 12.411,108.917 12.667 C 108.697 12.910,108.403 13.000,107.833 13.000 C 107.263 13.000,106.970 13.090,106.750 13.333 C 106.509 13.600,106.237 13.667,105.391 13.667 C 104.556 13.667,104.263 13.737,104.000 14.000 C 103.800 14.200,103.444 14.333,103.109 14.333 C 102.763 14.333,102.437 14.460,102.250 14.667 C 102.027 14.913,101.737 15.000,101.141 15.000 C 100.556 15.000,100.242 15.092,100.000 15.333 C 99.784 15.549,99.444 15.667,99.037 15.667 C 98.598 15.667,98.334 15.768,98.167 16.000 C 97.989 16.246,97.735 16.333,97.198 16.333 C 96.609 16.333,96.452 16.397,96.382 16.667 C 96.309 16.942,96.154 17.000,95.482 17.000 C 94.850 17.000,94.623 17.074,94.461 17.333 C 94.320 17.559,94.073 17.667,93.694 17.667 C 93.276 17.667,93.114 17.750,93.048 18.000 C 92.976 18.276,92.821 18.333,92.149 18.333 C 91.517 18.333,91.290 18.407,91.128 18.667 C 90.987 18.892,90.739 19.000,90.361 19.000 C 89.942 19.000,89.780 19.084,89.715 19.333 C 89.649 19.586,89.488 19.667,89.048 19.667 C 88.609 19.667,88.448 19.747,88.382 20.000 C 88.311 20.270,88.154 20.333,87.562 20.333 C 87.036 20.333,86.750 20.427,86.545 20.667 C 86.387 20.851,86.053 21.000,85.798 21.000 C 85.517 21.000,85.255 21.130,85.128 21.333 C 85.002 21.535,84.739 21.667,84.461 21.667 C 84.183 21.667,83.921 21.798,83.795 22.000 C 83.670 22.200,83.406 22.333,83.136 22.333 C 82.885 22.333,82.589 22.471,82.468 22.644 C 82.348 22.815,82.006 23.009,81.708 23.074 C 81.407 23.140,81.167 23.298,81.167 23.430 C 81.167 23.803,80.110 23.731,79.750 23.333 C 79.501 23.059,79.237 23.000,78.244 23.000 C 77.179 23.000,77.029 22.961,76.952 22.667 C 76.873 22.364,76.724 22.333,75.349 22.333 C 74.056 22.333,73.784 22.284,73.500 22.000 C 73.193 21.693,72.944 21.667,70.318 21.667 C 67.722 21.667,67.432 21.637,67.045 21.333 C 66.384 20.813,52.990 20.813,52.545 21.333 C 52.279 21.643,52.053 21.667,49.296 21.667 C 46.556 21.667,46.308 21.692,46.000 22.000 C 45.716 22.284,45.444 22.333,44.168 22.333 C 42.850 22.333,42.644 22.373,42.461 22.667 C 42.287 22.947,42.073 23.000,41.128 23.000 C 40.183 23.000,39.969 23.053,39.795 23.333 C 39.616 23.620,39.406 23.667,38.293 23.667 C 37.222 23.667,36.943 23.724,36.667 24.000 C 36.444 24.222,36.111 24.333,35.667 24.333 C 35.222 24.333,34.889 24.444,34.667 24.667 C 34.422 24.911,34.111 25.000,33.501 25.000 C 32.850 25.000,32.624 25.072,32.461 25.333 C 32.329 25.546,32.071 25.667,31.752 25.669 C 30.997 25.672,30.500 25.845,30.500 26.103 C 30.500 26.262,30.288 26.333,29.818 26.333 C 29.276 26.333,29.118 26.402,29.048 26.667 C 28.985 26.910,28.820 27.001,28.439 27.002 C 27.665 27.006,27.167 27.176,27.167 27.436 C 27.167 27.588,26.969 27.667,26.585 27.667 C 26.183 27.667,25.938 27.770,25.795 28.000 C 25.654 28.226,25.406 28.333,25.028 28.333 C 24.609 28.333,24.447 28.417,24.382 28.667 C 24.316 28.919,24.154 29.000,23.715 29.000 C 23.276 29.000,23.114 29.081,23.048 29.333 C 22.992 29.550,22.821 29.667,22.562 29.667 C 22.343 29.667,22.035 29.817,21.878 30.000 C 21.721 30.183,21.459 30.333,21.296 30.333 C 21.133 30.333,20.850 30.483,20.667 30.667 C 20.483 30.850,20.214 31.000,20.068 31.000 C 19.922 31.000,19.763 31.150,19.715 31.333 C 19.649 31.586,19.488 31.667,19.048 31.667 C 18.609 31.667,18.448 31.747,18.382 32.000 C 18.333 32.184,18.154 32.333,17.981 32.333 C 17.778 32.333,17.667 32.451,17.667 32.667 C 17.667 32.938,17.556 33.000,17.068 33.000 C 16.609 33.000,16.448 33.078,16.382 33.333 C 16.333 33.518,16.154 33.667,15.981 33.667 C 15.778 33.667,15.667 33.785,15.667 34.000 C 15.667 34.243,15.556 34.333,15.256 34.333 C 15.031 34.333,14.712 34.471,14.548 34.640 C 14.384 34.809,14.119 34.994,13.958 35.051 C 13.798 35.109,13.667 35.271,13.667 35.411 C 13.667 35.552,13.547 35.667,13.401 35.667 C 13.255 35.667,13.096 35.817,13.048 36.000 C 13.000 36.184,12.821 36.333,12.647 36.333 C 12.444 36.333,12.333 36.451,12.333 36.667 C 12.333 36.877,12.222 37.000,12.032 37.000 C 11.866 37.000,11.397 37.337,10.990 37.750 C 9.796 38.960,9.559 39.167,9.365 39.167 C 9.264 39.167,9.133 39.429,9.072 39.750 C 8.993 40.172,8.876 40.333,8.648 40.333 C 8.444 40.333,8.333 40.451,8.333 40.667 C 8.333 40.889,8.222 41.000,8.000 41.000 C 7.778 41.000,7.667 41.111,7.667 41.333 C 7.667 41.556,7.556 41.667,7.333 41.667 C 7.111 41.667,7.000 41.778,7.000 42.000 C 7.000 42.188,6.889 42.333,6.745 42.333 C 6.604 42.333,6.441 42.465,6.381 42.625 C 6.321 42.785,6.136 43.015,5.969 43.134 C 5.795 43.260,5.667 43.560,5.667 43.843 C 5.667 44.222,5.591 44.333,5.333 44.333 C 5.118 44.333,5.000 44.444,5.000 44.647 C 5.000 44.821,4.851 45.000,4.667 45.048 C 4.411 45.115,4.333 45.276,4.333 45.734 C 4.333 46.222,4.271 46.333,4.000 46.333 C 3.756 46.333,3.667 46.444,3.667 46.750 C 3.667 47.003,3.572 47.167,3.424 47.167 C 3.280 47.167,3.138 47.398,3.075 47.735 C 3.007 48.096,2.853 48.333,2.651 48.386 C 2.418 48.447,2.333 48.618,2.333 49.031 C 2.333 49.386,2.211 49.697,2.000 49.878 C 1.761 50.083,1.667 50.370,1.667 50.896 C 1.667 51.488,1.603 51.644,1.333 51.715 C 1.083 51.780,1.000 51.942,1.000 52.364 C 1.000 52.720,0.878 53.031,0.667 53.211 C 0.382 53.455,0.333 53.703,0.333 54.915 C 0.333 55.749,0.265 56.333,0.167 56.333 C 0.057 56.333,0.000 61.722,0.000 72.167 L 0.000 88.000 200.000 88.000 L 400.000 88.000 400.000 69.917 C 400.000 57.972,399.943 51.833,399.833 51.833 C 399.742 51.833,399.666 51.402,399.664 50.875 C 399.662 49.686,399.530 49.167,399.231 49.167 C 399.072 49.167,399.000 48.954,399.000 48.484 C 399.000 47.942,398.932 47.784,398.667 47.715 C 398.391 47.643,398.333 47.488,398.333 46.815 C 398.333 46.183,398.259 45.957,398.000 45.795 C 397.774 45.654,397.667 45.406,397.667 45.028 C 397.667 44.609,397.583 44.447,397.333 44.382 C 397.081 44.316,397.000 44.154,397.000 43.715 C 397.000 43.276,396.919 43.114,396.667 43.048 C 396.414 42.982,396.333 42.821,396.333 42.382 C 396.333 41.942,396.253 41.781,396.000 41.715 C 395.816 41.667,395.667 41.488,395.667 41.314 C 395.667 41.141,395.517 40.850,395.333 40.667 C 395.150 40.483,395.000 40.214,395.000 40.068 C 395.000 39.922,394.850 39.763,394.667 39.715 C 394.433 39.654,394.333 39.488,394.333 39.157 C 394.333 38.893,394.200 38.590,394.031 38.468 C 393.864 38.348,393.679 38.119,393.619 37.958 C 393.559 37.798,393.396 37.667,393.255 37.667 C 393.111 37.667,393.000 37.522,393.000 37.333 C 393.000 37.111,392.889 37.000,392.667 37.000 C 392.409 37.000,392.333 36.889,392.333 36.509 C 392.333 36.227,392.205 35.927,392.031 35.801 C 391.864 35.681,391.679 35.452,391.619 35.292 C 391.559 35.131,391.396 35.000,391.255 35.000 C 391.115 35.000,391.000 34.880,391.000 34.734 C 391.000 34.588,390.850 34.430,390.667 34.382 C 390.483 34.334,390.333 34.184,390.333 34.048 C 390.333 33.913,390.183 33.763,390.000 33.715 C 389.817 33.667,389.667 33.517,389.667 33.382 C 389.667 33.246,389.517 33.096,389.333 33.048 C 389.150 33.000,389.000 32.850,389.000 32.715 C 389.000 32.580,388.850 32.430,388.667 32.382 C 388.483 32.334,388.333 32.184,388.333 32.048 C 388.333 31.913,388.183 31.763,388.000 31.715 C 387.817 31.667,387.667 31.517,387.667 31.382 C 387.667 31.246,387.524 31.098,387.349 31.052 C 387.174 31.007,386.993 30.826,386.948 30.651 C 386.902 30.476,386.719 30.333,386.541 30.333 C 386.364 30.333,386.083 30.183,385.917 30.000 C 385.751 29.817,385.477 29.667,385.308 29.667 C 385.111 29.667,385.000 29.546,385.000 29.333 C 385.000 29.118,384.889 29.000,384.686 29.000 C 384.512 29.000,384.333 28.851,384.285 28.667 C 384.236 28.478,384.058 28.333,383.875 28.333 C 383.697 28.333,383.416 28.183,383.250 28.000 C 383.084 27.817,382.819 27.667,382.660 27.667 C 382.502 27.667,382.333 27.517,382.285 27.333 C 382.218 27.078,382.058 27.000,381.599 27.000 C 381.111 27.000,381.000 26.938,381.000 26.667 C 381.000 26.460,380.889 26.333,380.707 26.333 C 380.545 26.333,380.320 26.183,380.205 26.000 C 380.079 25.798,379.817 25.667,379.539 25.667 C 379.261 25.667,378.998 25.535,378.872 25.333 C 378.745 25.130,378.483 25.000,378.202 25.000 C 377.947 25.000,377.613 24.851,377.455 24.667 C 377.287 24.470,376.964 24.333,376.668 24.333 C 376.352 24.333,376.167 24.248,376.167 24.103 C 376.167 23.844,375.669 23.672,374.912 23.669 C 374.616 23.668,374.290 23.529,374.122 23.333 C 373.917 23.094,373.630 23.000,373.104 23.000 C 372.512 23.000,372.356 22.936,372.285 22.667 C 372.211 22.382,372.058 22.333,371.242 22.333 C 370.524 22.333,370.234 22.261,370.074 22.042 C 369.898 21.801,369.538 21.740,368.014 21.694 C 366.642 21.652,366.167 21.582,366.167 21.421 C 366.167 21.021,365.452 21.005,347.875 21.002 C 330.445 21.000,330.333 20.998,330.333 20.667 C 330.333 20.444,330.222 20.333,330.000 20.333 C 329.778 20.333,329.667 20.222,329.667 20.000 C 329.667 19.778,329.556 19.667,329.333 19.667 C 329.111 19.667,329.000 19.556,329.000 19.333 C 329.000 19.111,328.889 19.000,328.667 19.000 C 328.444 19.000,328.333 18.889,328.333 18.667 C 328.333 18.444,328.222 18.333,328.000 18.333 C 327.778 18.333,327.667 18.222,327.667 18.000 C 327.667 17.778,327.556 17.667,327.333 17.667 C 327.111 17.667,327.000 17.556,327.000 17.333 C 327.000 17.111,326.889 17.000,326.667 17.000 C 326.444 17.000,326.333 16.889,326.333 16.667 C 326.333 16.444,326.222 16.333,326.000 16.333 C 325.778 16.333,325.667 16.222,325.667 16.000 C 325.667 15.778,325.556 15.667,325.333 15.667 C 325.139 15.667,325.000 15.556,325.000 15.401 C 325.000 15.255,324.850 15.096,324.667 15.048 C 324.483 15.000,324.333 14.855,324.333 14.725 C 324.333 14.596,324.202 14.442,324.042 14.385 C 323.881 14.327,323.616 14.142,323.452 13.973 C 323.288 13.805,322.969 13.667,322.744 13.667 C 322.444 13.667,322.333 13.576,322.333 13.333 C 322.333 13.111,322.222 13.000,322.000 13.000 C 321.812 13.000,321.667 12.889,321.667 12.745 C 321.667 12.604,321.535 12.441,321.375 12.381 C 321.215 12.321,320.985 12.136,320.866 11.969 C 320.740 11.795,320.440 11.667,320.157 11.667 C 319.778 11.667,319.667 11.591,319.667 11.333 C 319.667 11.118,319.556 11.000,319.353 11.000 C 319.179 11.000,319.000 10.851,318.952 10.667 C 318.885 10.411,318.724 10.333,318.266 10.333 C 317.778 10.333,317.667 10.271,317.667 10.000 C 317.667 9.793,317.556 9.667,317.373 9.667 C 317.212 9.667,316.987 9.517,316.872 9.333 C 316.742 9.126,316.483 9.000,316.185 9.000 C 315.846 9.000,315.680 8.902,315.618 8.667 C 315.552 8.414,315.391 8.333,314.952 8.333 C 314.512 8.333,314.351 8.253,314.285 8.000 C 314.237 7.817,314.078 7.667,313.932 7.667 C 313.786 7.667,313.517 7.517,313.333 7.333 C 313.111 7.111,312.778 7.000,312.333 7.000 C 311.778 7.000,311.667 6.944,311.667 6.667 C 311.667 6.391,311.556 6.333,311.019 6.333 C 310.512 6.333,310.353 6.261,310.285 6.000 C 310.219 5.747,310.058 5.667,309.618 5.667 C 309.179 5.667,309.018 5.586,308.952 5.333 C 308.886 5.084,308.724 5.000,308.306 5.000 C 307.927 5.000,307.680 4.892,307.539 4.667 C 307.406 4.454,307.150 4.333,306.832 4.333 C 306.556 4.333,306.185 4.185,306.000 4.000 C 305.742 3.742,305.444 3.667,304.686 3.667 C 303.846 3.667,303.693 3.619,303.618 3.333 C 303.545 3.051,303.391 3.000,302.618 3.000 C 301.846 3.000,301.692 2.949,301.618 2.667 C 301.544 2.383,301.391 2.333,300.599 2.333 C 299.889 2.333,299.587 2.254,299.333 2.000 C 299.057 1.724,298.778 1.667,297.707 1.667 C 296.594 1.667,296.384 1.620,296.205 1.333 C 296.021 1.038,295.817 1.000,294.415 1.000 C 293.179 1.000,292.833 0.950,292.833 0.769 C 292.833 0.365,292.247 0.338,283.397 0.336 C 274.962 0.333,274.699 0.343,274.288 0.667 " stroke="none" fill="#ffffff" fill-rule="evenodd"></path><path id="path1" d="M274.288 0.667 C 273.945 0.936,273.612 1.000,272.547 1.000 C 271.460 1.000,271.167 1.058,270.872 1.333 C 270.581 1.604,270.284 1.667,269.279 1.667 C 268.297 1.667,267.958 1.735,267.621 2.000 C 267.323 2.234,266.945 2.333,266.347 2.333 C 265.703 2.333,265.428 2.414,265.211 2.667 C 265.044 2.862,264.717 3.001,264.421 3.002 C 263.664 3.006,263.167 3.178,263.167 3.436 C 263.167 3.604,262.920 3.667,262.251 3.667 C 261.517 3.667,261.295 3.732,261.128 4.000 C 260.987 4.226,260.739 4.333,260.361 4.333 C 259.942 4.333,259.780 4.417,259.715 4.667 C 259.647 4.928,259.488 5.000,258.981 5.000 C 258.556 5.000,258.219 5.114,258.000 5.333 C 257.815 5.518,257.444 5.667,257.168 5.667 C 256.850 5.667,256.594 5.787,256.461 6.000 C 256.335 6.202,256.073 6.333,255.795 6.333 C 255.517 6.333,255.254 6.465,255.128 6.667 C 255.002 6.869,254.739 7.000,254.461 7.000 C 254.183 7.000,253.921 7.131,253.795 7.333 C 253.680 7.517,253.455 7.667,253.293 7.667 C 253.132 7.667,252.850 7.817,252.667 8.000 C 252.483 8.183,252.183 8.333,252.000 8.333 C 251.778 8.333,251.667 8.444,251.667 8.667 C 251.667 8.938,251.556 9.000,251.068 9.000 C 250.609 9.000,250.448 9.078,250.382 9.333 C 250.333 9.518,250.154 9.667,249.981 9.667 C 249.808 9.667,249.517 9.817,249.333 10.000 C 249.150 10.183,248.858 10.333,248.684 10.333 C 248.511 10.333,248.324 10.449,248.270 10.591 C 248.216 10.733,247.945 10.928,247.669 11.024 C 247.393 11.120,247.167 11.269,247.167 11.354 C 247.167 11.439,246.979 11.580,246.750 11.667 C 246.521 11.754,246.333 11.939,246.333 12.079 C 246.333 12.222,246.188 12.333,246.000 12.333 C 245.778 12.333,245.667 12.444,245.667 12.667 C 245.667 12.924,245.556 13.000,245.176 13.000 C 244.893 13.000,244.593 13.128,244.468 13.303 C 244.348 13.469,244.119 13.654,243.958 13.714 C 243.798 13.774,243.667 13.938,243.667 14.078 C 243.667 14.222,243.522 14.333,243.333 14.333 C 243.111 14.333,243.000 14.444,243.000 14.667 C 243.000 14.889,242.889 15.000,242.667 15.000 C 242.444 15.000,242.333 15.111,242.333 15.333 C 242.333 15.592,242.222 15.667,241.835 15.667 C 241.517 15.667,241.261 15.787,241.128 16.000 C 240.843 16.456,239.789 16.456,239.333 16.000 C 239.072 15.739,238.778 15.667,237.977 15.667 C 237.194 15.667,236.903 15.598,236.740 15.375 C 236.562 15.130,236.196 15.074,234.472 15.027 C 232.707 14.979,232.375 14.926,232.119 14.652 C 231.646 14.147,222.042 14.160,221.583 14.667 C 221.315 14.963,221.070 15.000,219.391 15.000 C 217.722 15.000,217.461 15.039,217.167 15.333 C 216.902 15.598,216.611 15.667,215.751 15.667 C 214.850 15.667,214.635 15.722,214.461 16.000 C 214.301 16.257,214.073 16.333,213.461 16.333 C 212.850 16.333,212.622 16.409,212.461 16.667 C 212.301 16.924,212.073 17.000,211.461 17.000 C 210.850 17.000,210.622 17.076,210.461 17.333 C 210.201 17.751,208.167 17.842,208.167 17.436 C 208.167 17.174,207.667 17.006,206.875 17.002 C 206.558 17.001,206.195 16.862,206.000 16.667 C 205.781 16.448,205.444 16.333,205.019 16.333 C 204.512 16.333,204.353 16.261,204.285 16.000 C 204.211 15.718,204.058 15.667,203.285 15.667 C 202.512 15.667,202.359 15.615,202.285 15.333 C 202.211 15.051,202.058 15.000,201.285 15.000 C 200.512 15.000,200.359 14.949,200.285 14.667 C 200.212 14.386,200.058 14.333,199.306 14.333 C 198.594 14.333,198.371 14.266,198.205 14.000 C 198.030 13.719,197.817 13.667,196.851 13.667 C 195.846 13.667,195.695 13.626,195.618 13.333 C 195.545 13.052,195.391 13.000,194.639 13.000 C 193.927 13.000,193.705 12.933,193.539 12.667 C 193.364 12.387,193.150 12.333,192.205 12.333 C 191.261 12.333,191.047 12.280,190.872 12.000 C 190.696 11.718,190.483 11.667,189.499 11.667 C 188.556 11.667,188.270 11.603,188.000 11.333 C 187.739 11.072,187.444 11.000,186.643 11.000 C 185.861 11.000,185.570 10.931,185.407 10.708 C 185.231 10.467,184.870 10.407,183.324 10.360 C 181.764 10.312,181.396 10.250,181.112 9.985 C 180.827 9.720,180.515 9.667,179.238 9.667 C 177.846 9.667,177.698 9.636,177.618 9.333 C 177.538 9.025,177.391 9.000,175.659 9.000 C 174.068 9.000,173.755 8.956,173.574 8.708 C 173.386 8.451,172.973 8.410,170.076 8.362 C 167.111 8.313,166.758 8.276,166.448 7.987 C 166.127 7.688,165.815 7.667,161.796 7.667 C 157.974 7.667,157.438 7.634,157.043 7.375 C 156.364 6.930,145.871 6.930,145.379 7.375 C 145.090 7.637,144.616 7.667,140.695 7.667 C 136.601 7.667,136.314 7.686,136.010 7.990 C 135.716 8.284,135.391 8.318,132.444 8.365 C 129.635 8.410,129.158 8.456,128.879 8.708 C 128.615 8.948,128.239 9.000,126.779 9.000 C 125.222 9.000,124.958 9.042,124.667 9.333 C 124.386 9.614,124.111 9.667,122.915 9.667 C 121.703 9.667,121.455 9.715,121.211 10.000 C 120.960 10.293,120.720 10.333,119.211 10.333 C 117.703 10.333,117.462 10.373,117.211 10.667 C 116.978 10.939,116.720 11.000,115.806 11.000 C 114.898 11.000,114.644 11.059,114.466 11.314 C 114.288 11.568,113.983 11.640,112.858 11.691 C 111.782 11.740,111.423 11.819,111.258 12.044 C 111.102 12.258,110.808 12.333,110.132 12.333 C 109.430 12.333,109.148 12.411,108.917 12.667 C 108.697 12.910,108.403 13.000,107.833 13.000 C 107.263 13.000,106.970 13.090,106.750 13.333 C 106.509 13.600,106.237 13.667,105.391 13.667 C 104.556 13.667,104.263 13.737,104.000 14.000 C 103.800 14.200,103.444 14.333,103.109 14.333 C 102.763 14.333,102.437 14.460,102.250 14.667 C 102.027 14.913,101.737 15.000,101.141 15.000 C 100.556 15.000,100.242 15.092,100.000 15.333 C 99.784 15.549,99.444 15.667,99.037 15.667 C 98.598 15.667,98.334 15.768,98.167 16.000 C 97.989 16.246,97.735 16.333,97.198 16.333 C 96.609 16.333,96.452 16.397,96.382 16.667 C 96.309 16.942,96.154 17.000,95.482 17.000 C 94.850 17.000,94.623 17.074,94.461 17.333 C 94.320 17.559,94.073 17.667,93.694 17.667 C 93.276 17.667,93.114 17.750,93.048 18.000 C 92.976 18.276,92.821 18.333,92.149 18.333 C 91.517 18.333,91.290 18.407,91.128 18.667 C 90.987 18.892,90.739 19.000,90.361 19.000 C 89.942 19.000,89.780 19.084,89.715 19.333 C 89.649 19.586,89.488 19.667,89.048 19.667 C 88.609 19.667,88.448 19.747,88.382 20.000 C 88.311 20.270,88.154 20.333,87.562 20.333 C 87.036 20.333,86.750 20.427,86.545 20.667 C 86.387 20.851,86.053 21.000,85.798 21.000 C 85.517 21.000,85.255 21.130,85.128 21.333 C 85.002 21.535,84.739 21.667,84.461 21.667 C 84.183 21.667,83.921 21.798,83.795 22.000 C 83.670 22.200,83.406 22.333,83.136 22.333 C 82.885 22.333,82.589 22.471,82.468 22.644 C 82.348 22.815,82.006 23.009,81.708 23.074 C 81.407 23.140,81.167 23.298,81.167 23.430 C 81.167 23.803,80.110 23.731,79.750 23.333 C 79.501 23.059,79.237 23.000,78.244 23.000 C 77.179 23.000,77.029 22.961,76.952 22.667 C 76.873 22.364,76.724 22.333,75.349 22.333 C 74.056 22.333,73.784 22.284,73.500 22.000 C 73.193 21.693,72.944 21.667,70.318 21.667 C 67.722 21.667,67.432 21.637,67.045 21.333 C 66.384 20.813,52.990 20.813,52.545 21.333 C 52.279 21.643,52.053 21.667,49.296 21.667 C 46.556 21.667,46.308 21.692,46.000 22.000 C 45.716 22.284,45.444 22.333,44.168 22.333 C 42.850 22.333,42.644 22.373,42.461 22.667 C 42.287 22.947,42.073 23.000,41.128 23.000 C 40.183 23.000,39.969 23.053,39.795 23.333 C 39.616 23.620,39.406 23.667,38.293 23.667 C 37.222 23.667,36.943 23.724,36.667 24.000 C 36.444 24.222,36.111 24.333,35.667 24.333 C 35.222 24.333,34.889 24.444,34.667 24.667 C 34.422 24.911,34.111 25.000,33.501 25.000 C 32.850 25.000,32.624 25.072,32.461 25.333 C 32.329 25.546,32.071 25.667,31.752 25.669 C 30.997 25.672,30.500 25.845,30.500 26.103 C 30.500 26.262,30.288 26.333,29.818 26.333 C 29.276 26.333,29.118 26.402,29.048 26.667 C 28.985 26.910,28.820 27.001,28.439 27.002 C 27.665 27.006,27.167 27.176,27.167 27.436 C 27.167 27.588,26.969 27.667,26.585 27.667 C 26.183 27.667,25.938 27.770,25.795 28.000 C 25.654 28.226,25.406 28.333,25.028 28.333 C 24.609 28.333,24.447 28.417,24.382 28.667 C 24.316 28.919,24.154 29.000,23.715 29.000 C 23.276 29.000,23.114 29.081,23.048 29.333 C 22.992 29.550,22.821 29.667,22.562 29.667 C 22.343 29.667,22.035 29.817,21.878 30.000 C 21.721 30.183,21.459 30.333,21.296 30.333 C 21.133 30.333,20.850 30.483,20.667 30.667 C 20.483 30.850,20.214 31.000,20.068 31.000 C 19.922 31.000,19.763 31.150,19.715 31.333 C 19.649 31.586,19.488 31.667,19.048 31.667 C 18.609 31.667,18.448 31.747,18.382 32.000 C 18.333 32.184,18.154 32.333,17.981 32.333 C 17.778 32.333,17.667 32.451,17.667 32.667 C 17.667 32.938,17.556 33.000,17.068 33.000 C 16.609 33.000,16.448 33.078,16.382 33.333 C 16.333 33.518,16.154 33.667,15.981 33.667 C 15.778 33.667,15.667 33.785,15.667 34.000 C 15.667 34.243,15.556 34.333,15.256 34.333 C 15.031 34.333,14.712 34.471,14.548 34.640 C 14.384 34.809,14.119 34.994,13.958 35.051 C 13.798 35.109,13.667 35.271,13.667 35.411 C 13.667 35.552,13.547 35.667,13.401 35.667 C 13.255 35.667,13.096 35.817,13.048 36.000 C 13.000 36.184,12.821 36.333,12.647 36.333 C 12.444 36.333,12.333 36.451,12.333 36.667 C 12.333 36.877,12.222 37.000,12.032 37.000 C 11.866 37.000,11.397 37.337,10.990 37.750 C 9.796 38.960,9.559 39.167,9.365 39.167 C 9.264 39.167,9.133 39.429,9.072 39.750 C 8.993 40.172,8.876 40.333,8.648 40.333 C 8.444 40.333,8.333 40.451,8.333 40.667 C 8.333 40.889,8.222 41.000,8.000 41.000 C 7.778 41.000,7.667 41.111,7.667 41.333 C 7.667 41.556,7.556 41.667,7.333 41.667 C 7.111 41.667,7.000 41.778,7.000 42.000 C 7.000 42.188,6.889 42.333,6.745 42.333 C 6.604 42.333,6.441 42.465,6.381 42.625 C 6.321 42.785,6.136 43.015,5.969 43.134 C 5.795 43.260,5.667 43.560,5.667 43.843 C 5.667 44.222,5.591 44.333,5.333 44.333 C 5.118 44.333,5.000 44.444,5.000 44.647 C 5.000 44.821,4.851 45.000,4.667 45.048 C 4.411 45.115,4.333 45.276,4.333 45.734 C 4.333 46.222,4.271 46.333,4.000 46.333 C 3.756 46.333,3.667 46.444,3.667 46.750 C 3.667 47.003,3.572 47.167,3.424 47.167 C 3.280 47.167,3.138 47.398,3.075 47.735 C 3.007 48.096,2.853 48.333,2.651 48.386 C 2.418 48.447,2.333 48.618,2.333 49.031 C 2.333 49.386,2.211 49.697,2.000 49.878 C 1.761 50.083,1.667 50.370,1.667 50.896 C 1.667 51.488,1.603 51.644,1.333 51.715 C 1.083 51.780,1.000 51.942,1.000 52.364 C 1.000 52.720,0.878 53.031,0.667 53.211 C 0.382 53.455,0.333 53.703,0.333 54.915 C 0.333 55.749,0.265 56.333,0.167 56.333 C 0.057 56.333,0.000 61.722,0.000 72.167 L 0.000 88.000 200.000 88.000 L 400.000 88.000 400.000 69.917 C 400.000 57.972,399.943 51.833,399.833 51.833 C 399.742 51.833,399.666 51.402,399.664 50.875 C 399.662 49.686,399.530 49.167,399.231 49.167 C 399.072 49.167,399.000 48.954,399.000 48.484 C 399.000 47.942,398.932 47.784,398.667 47.715 C 398.391 47.643,398.333 47.488,398.333 46.815 C 398.333 46.183,398.259 45.957,398.000 45.795 C 397.774 45.654,397.667 45.406,397.667 45.028 C 397.667 44.609,397.583 44.447,397.333 44.382 C 397.081 44.316,397.000 44.154,397.000 43.715 C 397.000 43.276,396.919 43.114,396.667 43.048 C 396.414 42.982,396.333 42.821,396.333 42.382 C 396.333 41.942,396.253 41.781,396.000 41.715 C 395.816 41.667,395.667 41.488,395.667 41.314 C 395.667 41.141,395.517 40.850,395.333 40.667 C 395.150 40.483,395.000 40.214,395.000 40.068 C 395.000 39.922,394.850 39.763,394.667 39.715 C 394.433 39.654,394.333 39.488,394.333 39.157 C 394.333 38.893,394.200 38.590,394.031 38.468 C 393.864 38.348,393.679 38.119,393.619 37.958 C 393.559 37.798,393.396 37.667,393.255 37.667 C 393.111 37.667,393.000 37.522,393.000 37.333 C 393.000 37.111,392.889 37.000,392.667 37.000 C 392.409 37.000,392.333 36.889,392.333 36.509 C 392.333 36.227,392.205 35.927,392.031 35.801 C 391.864 35.681,391.679 35.452,391.619 35.292 C 391.559 35.131,391.396 35.000,391.255 35.000 C 391.115 35.000,391.000 34.880,391.000 34.734 C 391.000 34.588,390.850 34.430,390.667 34.382 C 390.483 34.334,390.333 34.184,390.333 34.048 C 390.333 33.913,390.183 33.763,390.000 33.715 C 389.817 33.667,389.667 33.517,389.667 33.382 C 389.667 33.246,389.517 33.096,389.333 33.048 C 389.150 33.000,389.000 32.850,389.000 32.715 C 389.000 32.580,388.850 32.430,388.667 32.382 C 388.483 32.334,388.333 32.184,388.333 32.048 C 388.333 31.913,388.183 31.763,388.000 31.715 C 387.817 31.667,387.667 31.517,387.667 31.382 C 387.667 31.246,387.524 31.098,387.349 31.052 C 387.174 31.007,386.993 30.826,386.948 30.651 C 386.902 30.476,386.719 30.333,386.541 30.333 C 386.364 30.333,386.083 30.183,385.917 30.000 C 385.751 29.817,385.477 29.667,385.308 29.667 C 385.111 29.667,385.000 29.546,385.000 29.333 C 385.000 29.118,384.889 29.000,384.686 29.000 C 384.512 29.000,384.333 28.851,384.285 28.667 C 384.236 28.478,384.058 28.333,383.875 28.333 C 383.697 28.333,383.416 28.183,383.250 28.000 C 383.084 27.817,382.819 27.667,382.660 27.667 C 382.502 27.667,382.333 27.517,382.285 27.333 C 382.218 27.078,382.058 27.000,381.599 27.000 C 381.111 27.000,381.000 26.938,381.000 26.667 C 381.000 26.460,380.889 26.333,380.707 26.333 C 380.545 26.333,380.320 26.183,380.205 26.000 C 380.079 25.798,379.817 25.667,379.539 25.667 C 379.261 25.667,378.998 25.535,378.872 25.333 C 378.745 25.130,378.483 25.000,378.202 25.000 C 377.947 25.000,377.613 24.851,377.455 24.667 C 377.287 24.470,376.964 24.333,376.668 24.333 C 376.352 24.333,376.167 24.248,376.167 24.103 C 376.167 23.844,375.669 23.672,374.912 23.669 C 374.616 23.668,374.290 23.529,374.122 23.333 C 373.917 23.094,373.630 23.000,373.104 23.000 C 372.512 23.000,372.356 22.936,372.285 22.667 C 372.211 22.382,372.058 22.333,371.242 22.333 C 370.524 22.333,370.234 22.261,370.074 22.042 C 369.898 21.801,369.538 21.740,368.014 21.694 C 366.642 21.652,366.167 21.582,366.167 21.421 C 366.167 21.021,365.452 21.005,347.875 21.002 C 330.445 21.000,330.333 20.998,330.333 20.667 C 330.333 20.444,330.222 20.333,330.000 20.333 C 329.778 20.333,329.667 20.222,329.667 20.000 C 329.667 19.778,329.556 19.667,329.333 19.667 C 329.111 19.667,329.000 19.556,329.000 19.333 C 329.000 19.111,328.889 19.000,328.667 19.000 C 328.444 19.000,328.333 18.889,328.333 18.667 C 328.333 18.444,328.222 18.333,328.000 18.333 C 327.778 18.333,327.667 18.222,327.667 18.000 C 327.667 17.778,327.556 17.667,327.333 17.667 C 327.111 17.667,327.000 17.556,327.000 17.333 C 327.000 17.111,326.889 17.000,326.667 17.000 C 326.444 17.000,326.333 16.889,326.333 16.667 C 326.333 16.444,326.222 16.333,326.000 16.333 C 325.778 16.333,325.667 16.222,325.667 16.000 C 325.667 15.778,325.556 15.667,325.333 15.667 C 325.139 15.667,325.000 15.556,325.000 15.401 C 325.000 15.255,324.850 15.096,324.667 15.048 C 324.483 15.000,324.333 14.855,324.333 14.725 C 324.333 14.596,324.202 14.442,324.042 14.385 C 323.881 14.327,323.616 14.142,323.452 13.973 C 323.288 13.805,322.969 13.667,322.744 13.667 C 322.444 13.667,322.333 13.576,322.333 13.333 C 322.333 13.111,322.222 13.000,322.000 13.000 C 321.812 13.000,321.667 12.889,321.667 12.745 C 321.667 12.604,321.535 12.441,321.375 12.381 C 321.215 12.321,320.985 12.136,320.866 11.969 C 320.740 11.795,320.440 11.667,320.157 11.667 C 319.778 11.667,319.667 11.591,319.667 11.333 C 319.667 11.118,319.556 11.000,319.353 11.000 C 319.179 11.000,319.000 10.851,318.952 10.667 C 318.885 10.411,318.724 10.333,318.266 10.333 C 317.778 10.333,317.667 10.271,317.667 10.000 C 317.667 9.793,317.556 9.667,317.373 9.667 C 317.212 9.667,316.987 9.517,316.872 9.333 C 316.742 9.126,316.483 9.000,316.185 9.000 C 315.846 9.000,315.680 8.902,315.618 8.667 C 315.552 8.414,315.391 8.333,314.952 8.333 C 314.512 8.333,314.351 8.253,314.285 8.000 C 314.237 7.817,314.078 7.667,313.932 7.667 C 313.786 7.667,313.517 7.517,313.333 7.333 C 313.111 7.111,312.778 7.000,312.333 7.000 C 311.778 7.000,311.667 6.944,311.667 6.667 C 311.667 6.391,311.556 6.333,311.019 6.333 C 310.512 6.333,310.353 6.261,310.285 6.000 C 310.219 5.747,310.058 5.667,309.618 5.667 C 309.179 5.667,309.018 5.586,308.952 5.333 C 308.886 5.084,308.724 5.000,308.306 5.000 C 307.927 5.000,307.680 4.892,307.539 4.667 C 307.406 4.454,307.150 4.333,306.832 4.333 C 306.556 4.333,306.185 4.185,306.000 4.000 C 305.742 3.742,305.444 3.667,304.686 3.667 C 303.846 3.667,303.693 3.619,303.618 3.333 C 303.545 3.051,303.391 3.000,302.618 3.000 C 301.846 3.000,301.692 2.949,301.618 2.667 C 301.544 2.383,301.391 2.333,300.599 2.333 C 299.889 2.333,299.587 2.254,299.333 2.000 C 299.057 1.724,298.778 1.667,297.707 1.667 C 296.594 1.667,296.384 1.620,296.205 1.333 C 296.021 1.038,295.817 1.000,294.415 1.000 C 293.179 1.000,292.833 0.950,292.833 0.769 C 292.833 0.365,292.247 0.338,283.397 0.336 C 274.962 0.333,274.699 0.343,274.288 0.667 " stroke="none" fill="#ffffff" fill-rule="evenodd"></path><path id="path2" d="M274.288 0.667 C 273.945 0.936,273.612 1.000,272.547 1.000 C 271.460 1.000,271.167 1.058,270.872 1.333 C 270.581 1.604,270.284 1.667,269.279 1.667 C 268.297 1.667,267.958 1.735,267.621 2.000 C 267.323 2.234,266.945 2.333,266.347 2.333 C 265.703 2.333,265.428 2.414,265.211 2.667 C 265.044 2.862,264.717 3.001,264.421 3.002 C 263.664 3.006,263.167 3.178,263.167 3.436 C 263.167 3.604,262.920 3.667,262.251 3.667 C 261.517 3.667,261.295 3.732,261.128 4.000 C 260.987 4.226,260.739 4.333,260.361 4.333 C 259.942 4.333,259.780 4.417,259.715 4.667 C 259.647 4.928,259.488 5.000,258.981 5.000 C 258.556 5.000,258.219 5.114,258.000 5.333 C 257.815 5.518,257.444 5.667,257.168 5.667 C 256.850 5.667,256.594 5.787,256.461 6.000 C 256.335 6.202,256.073 6.333,255.795 6.333 C 255.517 6.333,255.254 6.465,255.128 6.667 C 255.002 6.869,254.739 7.000,254.461 7.000 C 254.183 7.000,253.921 7.131,253.795 7.333 C 253.680 7.517,253.455 7.667,253.293 7.667 C 253.132 7.667,252.850 7.817,252.667 8.000 C 252.483 8.183,252.183 8.333,252.000 8.333 C 251.778 8.333,251.667 8.444,251.667 8.667 C 251.667 8.938,251.556 9.000,251.068 9.000 C 250.609 9.000,250.448 9.078,250.382 9.333 C 250.333 9.518,250.154 9.667,249.981 9.667 C 249.808 9.667,249.517 9.817,249.333 10.000 C 249.150 10.183,248.858 10.333,248.684 10.333 C 248.511 10.333,248.324 10.449,248.270 10.591 C 248.216 10.733,247.945 10.928,247.669 11.024 C 247.393 11.120,247.167 11.269,247.167 11.354 C 247.167 11.439,246.979 11.580,246.750 11.667 C 246.521 11.754,246.333 11.939,246.333 12.079 C 246.333 12.222,246.188 12.333,246.000 12.333 C 245.778 12.333,245.667 12.444,245.667 12.667 C 245.667 12.924,245.556 13.000,245.176 13.000 C 244.893 13.000,244.593 13.128,244.468 13.303 C 244.348 13.469,244.119 13.654,243.958 13.714 C 243.798 13.774,243.667 13.938,243.667 14.078 C 243.667 14.222,243.522 14.333,243.333 14.333 C 243.111 14.333,243.000 14.444,243.000 14.667 C 243.000 14.889,242.889 15.000,242.667 15.000 C 242.444 15.000,242.333 15.111,242.333 15.333 C 242.333 15.592,242.222 15.667,241.835 15.667 C 241.517 15.667,241.261 15.787,241.128 16.000 C 240.843 16.456,239.789 16.456,239.333 16.000 C 239.072 15.739,238.778 15.667,237.977 15.667 C 237.194 15.667,236.903 15.598,236.740 15.375 C 236.562 15.130,236.196 15.074,234.472 15.027 C 232.707 14.979,232.375 14.926,232.119 14.652 C 231.646 14.147,222.042 14.160,221.583 14.667 C 221.315 14.963,221.070 15.000,219.391 15.000 C 217.722 15.000,217.461 15.039,217.167 15.333 C 216.902 15.598,216.611 15.667,215.751 15.667 C 214.850 15.667,214.635 15.722,214.461 16.000 C 214.301 16.257,214.073 16.333,213.461 16.333 C 212.850 16.333,212.622 16.409,212.461 16.667 C 212.301 16.924,212.073 17.000,211.461 17.000 C 210.850 17.000,210.622 17.076,210.461 17.333 C 210.201 17.751,208.167 17.842,208.167 17.436 C 208.167 17.174,207.667 17.006,206.875 17.002 C 206.558 17.001,206.195 16.862,206.000 16.667 C 205.781 16.448,205.444 16.333,205.019 16.333 C 204.512 16.333,204.353 16.261,204.285 16.000 C 204.211 15.718,204.058 15.667,203.285 15.667 C 202.512 15.667,202.359 15.615,202.285 15.333 C 202.211 15.051,202.058 15.000,201.285 15.000 C 200.512 15.000,200.359 14.949,200.285 14.667 C 200.212 14.386,200.058 14.333,199.306 14.333 C 198.594 14.333,198.371 14.266,198.205 14.000 C 198.030 13.719,197.817 13.667,196.851 13.667 C 195.846 13.667,195.695 13.626,195.618 13.333 C 195.545 13.052,195.391 13.000,194.639 13.000 C 193.927 13.000,193.705 12.933,193.539 12.667 C 193.364 12.387,193.150 12.333,192.205 12.333 C 191.261 12.333,191.047 12.280,190.872 12.000 C 190.696 11.718,190.483 11.667,189.499 11.667 C 188.556 11.667,188.270 11.603,188.000 11.333 C 187.739 11.072,187.444 11.000,186.643 11.000 C 185.861 11.000,185.570 10.931,185.407 10.708 C 185.231 10.467,184.870 10.407,183.324 10.360 C 181.764 10.312,181.396 10.250,181.112 9.985 C 180.827 9.720,180.515 9.667,179.238 9.667 C 177.846 9.667,177.698 9.636,177.618 9.333 C 177.538 9.025,177.391 9.000,175.659 9.000 C 174.068 9.000,173.755 8.956,173.574 8.708 C 173.386 8.451,172.973 8.410,170.076 8.362 C 167.111 8.313,166.758 8.276,166.448 7.987 C 166.127 7.688,165.815 7.667,161.796 7.667 C 157.974 7.667,157.438 7.634,157.043 7.375 C 156.364 6.930,145.871 6.930,145.379 7.375 C 145.090 7.637,144.616 7.667,140.695 7.667 C 136.601 7.667,136.314 7.686,136.010 7.990 C 135.716 8.284,135.391 8.318,132.444 8.365 C 129.635 8.410,129.158 8.456,128.879 8.708 C 128.615 8.948,128.239 9.000,126.779 9.000 C 125.222 9.000,124.958 9.042,124.667 9.333 C 124.386 9.614,124.111 9.667,122.915 9.667 C 121.703 9.667,121.455 9.715,121.211 10.000 C 120.960 10.293,120.720 10.333,119.211 10.333 C 117.703 10.333,117.462 10.373,117.211 10.667 C 116.978 10.939,116.720 11.000,115.806 11.000 C 114.898 11.000,114.644 11.059,114.466 11.314 C 114.288 11.568,113.983 11.640,112.858 11.691 C 111.782 11.740,111.423 11.819,111.258 12.044 C 111.102 12.258,110.808 12.333,110.132 12.333 C 109.430 12.333,109.148 12.411,108.917 12.667 C 108.697 12.910,108.403 13.000,107.833 13.000 C 107.263 13.000,106.970 13.090,106.750 13.333 C 106.509 13.600,106.237 13.667,105.391 13.667 C 104.556 13.667,104.263 13.737,104.000 14.000 C 103.800 14.200,103.444 14.333,103.109 14.333 C 102.763 14.333,102.437 14.460,102.250 14.667 C 102.027 14.913,101.737 15.000,101.141 15.000 C 100.556 15.000,100.242 15.092,100.000 15.333 C 99.784 15.549,99.444 15.667,99.037 15.667 C 98.598 15.667,98.334 15.768,98.167 16.000 C 97.989 16.246,97.735 16.333,97.198 16.333 C 96.609 16.333,96.452 16.397,96.382 16.667 C 96.309 16.942,96.154 17.000,95.482 17.000 C 94.850 17.000,94.623 17.074,94.461 17.333 C 94.320 17.559,94.073 17.667,93.694 17.667 C 93.276 17.667,93.114 17.750,93.048 18.000 C 92.976 18.276,92.821 18.333,92.149 18.333 C 91.517 18.333,91.290 18.407,91.128 18.667 C 90.987 18.892,90.739 19.000,90.361 19.000 C 89.942 19.000,89.780 19.084,89.715 19.333 C 89.649 19.586,89.488 19.667,89.048 19.667 C 88.609 19.667,88.448 19.747,88.382 20.000 C 88.311 20.270,88.154 20.333,87.562 20.333 C 87.036 20.333,86.750 20.427,86.545 20.667 C 86.387 20.851,86.053 21.000,85.798 21.000 C 85.517 21.000,85.255 21.130,85.128 21.333 C 85.002 21.535,84.739 21.667,84.461 21.667 C 84.183 21.667,83.921 21.798,83.795 22.000 C 83.670 22.200,83.406 22.333,83.136 22.333 C 82.885 22.333,82.589 22.471,82.468 22.644 C 82.348 22.815,82.006 23.009,81.708 23.074 C 81.407 23.140,81.167 23.298,81.167 23.430 C 81.167 23.803,80.110 23.731,79.750 23.333 C 79.501 23.059,79.237 23.000,78.244 23.000 C 77.179 23.000,77.029 22.961,76.952 22.667 C 76.873 22.364,76.724 22.333,75.349 22.333 C 74.056 22.333,73.784 22.284,73.500 22.000 C 73.193 21.693,72.944 21.667,70.318 21.667 C 67.722 21.667,67.432 21.637,67.045 21.333 C 66.384 20.813,52.990 20.813,52.545 21.333 C 52.279 21.643,52.053 21.667,49.296 21.667 C 46.556 21.667,46.308 21.692,46.000 22.000 C 45.716 22.284,45.444 22.333,44.168 22.333 C 42.850 22.333,42.644 22.373,42.461 22.667 C 42.287 22.947,42.073 23.000,41.128 23.000 C 40.183 23.000,39.969 23.053,39.795 23.333 C 39.616 23.620,39.406 23.667,38.293 23.667 C 37.222 23.667,36.943 23.724,36.667 24.000 C 36.444 24.222,36.111 24.333,35.667 24.333 C 35.222 24.333,34.889 24.444,34.667 24.667 C 34.422 24.911,34.111 25.000,33.501 25.000 C 32.850 25.000,32.624 25.072,32.461 25.333 C 32.329 25.546,32.071 25.667,31.752 25.669 C 30.997 25.672,30.500 25.845,30.500 26.103 C 30.500 26.262,30.288 26.333,29.818 26.333 C 29.276 26.333,29.118 26.402,29.048 26.667 C 28.985 26.910,28.820 27.001,28.439 27.002 C 27.665 27.006,27.167 27.176,27.167 27.436 C 27.167 27.588,26.969 27.667,26.585 27.667 C 26.183 27.667,25.938 27.770,25.795 28.000 C 25.654 28.226,25.406 28.333,25.028 28.333 C 24.609 28.333,24.447 28.417,24.382 28.667 C 24.316 28.919,24.154 29.000,23.715 29.000 C 23.276 29.000,23.114 29.081,23.048 29.333 C 22.992 29.550,22.821 29.667,22.562 29.667 C 22.343 29.667,22.035 29.817,21.878 30.000 C 21.721 30.183,21.459 30.333,21.296 30.333 C 21.133 30.333,20.850 30.483,20.667 30.667 C 20.483 30.850,20.214 31.000,20.068 31.000 C 19.922 31.000,19.763 31.150,19.715 31.333 C 19.649 31.586,19.488 31.667,19.048 31.667 C 18.609 31.667,18.448 31.747,18.382 32.000 C 18.333 32.184,18.154 32.333,17.981 32.333 C 17.778 32.333,17.667 32.451,17.667 32.667 C 17.667 32.938,17.556 33.000,17.068 33.000 C 16.609 33.000,16.448 33.078,16.382 33.333 C 16.333 33.518,16.154 33.667,15.981 33.667 C 15.778 33.667,15.667 33.785,15.667 34.000 C 15.667 34.243,15.556 34.333,15.256 34.333 C 15.031 34.333,14.712 34.471,14.548 34.640 C 14.384 34.809,14.119 34.994,13.958 35.051 C 13.798 35.109,13.667 35.271,13.667 35.411 C 13.667 35.552,13.547 35.667,13.401 35.667 C 13.255 35.667,13.096 35.817,13.048 36.000 C 13.000 36.184,12.821 36.333,12.647 36.333 C 12.444 36.333,12.333 36.451,12.333 36.667 C 12.333 36.877,12.222 37.000,12.032 37.000 C 11.866 37.000,11.397 37.337,10.990 37.750 C 9.796 38.960,9.559 39.167,9.365 39.167 C 9.264 39.167,9.133 39.429,9.072 39.750 C 8.993 40.172,8.876 40.333,8.648 40.333 C 8.444 40.333,8.333 40.451,8.333 40.667 C 8.333 40.889,8.222 41.000,8.000 41.000 C 7.778 41.000,7.667 41.111,7.667 41.333 C 7.667 41.556,7.556 41.667,7.333 41.667 C 7.111 41.667,7.000 41.778,7.000 42.000 C 7.000 42.188,6.889 42.333,6.745 42.333 C 6.604 42.333,6.441 42.465,6.381 42.625 C 6.321 42.785,6.136 43.015,5.969 43.134 C 5.795 43.260,5.667 43.560,5.667 43.843 C 5.667 44.222,5.591 44.333,5.333 44.333 C 5.118 44.333,5.000 44.444,5.000 44.647 C 5.000 44.821,4.851 45.000,4.667 45.048 C 4.411 45.115,4.333 45.276,4.333 45.734 C 4.333 46.222,4.271 46.333,4.000 46.333 C 3.756 46.333,3.667 46.444,3.667 46.750 C 3.667 47.003,3.572 47.167,3.424 47.167 C 3.280 47.167,3.138 47.398,3.075 47.735 C 3.007 48.096,2.853 48.333,2.651 48.386 C 2.418 48.447,2.333 48.618,2.333 49.031 C 2.333 49.386,2.211 49.697,2.000 49.878 C 1.761 50.083,1.667 50.370,1.667 50.896 C 1.667 51.488,1.603 51.644,1.333 51.715 C 1.083 51.780,1.000 51.942,1.000 52.364 C 1.000 52.720,0.878 53.031,0.667 53.211 C 0.382 53.455,0.333 53.703,0.333 54.915 C 0.333 55.749,0.265 56.333,0.167 56.333 C 0.057 56.333,0.000 61.722,0.000 72.167 L 0.000 88.000 200.000 88.000 L 400.000 88.000 400.000 69.917 C 400.000 57.972,399.943 51.833,399.833 51.833 C 399.742 51.833,399.666 51.402,399.664 50.875 C 399.662 49.686,399.530 49.167,399.231 49.167 C 399.072 49.167,399.000 48.954,399.000 48.484 C 399.000 47.942,398.932 47.784,398.667 47.715 C 398.391 47.643,398.333 47.488,398.333 46.815 C 398.333 46.183,398.259 45.957,398.000 45.795 C 397.774 45.654,397.667 45.406,397.667 45.028 C 397.667 44.609,397.583 44.447,397.333 44.382 C 397.081 44.316,397.000 44.154,397.000 43.715 C 397.000 43.276,396.919 43.114,396.667 43.048 C 396.414 42.982,396.333 42.821,396.333 42.382 C 396.333 41.942,396.253 41.781,396.000 41.715 C 395.816 41.667,395.667 41.488,395.667 41.314 C 395.667 41.141,395.517 40.850,395.333 40.667 C 395.150 40.483,395.000 40.214,395.000 40.068 C 395.000 39.922,394.850 39.763,394.667 39.715 C 394.433 39.654,394.333 39.488,394.333 39.157 C 394.333 38.893,394.200 38.590,394.031 38.468 C 393.864 38.348,393.679 38.119,393.619 37.958 C 393.559 37.798,393.396 37.667,393.255 37.667 C 393.111 37.667,393.000 37.522,393.000 37.333 C 393.000 37.111,392.889 37.000,392.667 37.000 C 392.409 37.000,392.333 36.889,392.333 36.509 C 392.333 36.227,392.205 35.927,392.031 35.801 C 391.864 35.681,391.679 35.452,391.619 35.292 C 391.559 35.131,391.396 35.000,391.255 35.000 C 391.115 35.000,391.000 34.880,391.000 34.734 C 391.000 34.588,390.850 34.430,390.667 34.382 C 390.483 34.334,390.333 34.184,390.333 34.048 C 390.333 33.913,390.183 33.763,390.000 33.715 C 389.817 33.667,389.667 33.517,389.667 33.382 C 389.667 33.246,389.517 33.096,389.333 33.048 C 389.150 33.000,389.000 32.850,389.000 32.715 C 389.000 32.580,388.850 32.430,388.667 32.382 C 388.483 32.334,388.333 32.184,388.333 32.048 C 388.333 31.913,388.183 31.763,388.000 31.715 C 387.817 31.667,387.667 31.517,387.667 31.382 C 387.667 31.246,387.524 31.098,387.349 31.052 C 387.174 31.007,386.993 30.826,386.948 30.651 C 386.902 30.476,386.719 30.333,386.541 30.333 C 386.364 30.333,386.083 30.183,385.917 30.000 C 385.751 29.817,385.477 29.667,385.308 29.667 C 385.111 29.667,385.000 29.546,385.000 29.333 C 385.000 29.118,384.889 29.000,384.686 29.000 C 384.512 29.000,384.333 28.851,384.285 28.667 C 384.236 28.478,384.058 28.333,383.875 28.333 C 383.697 28.333,383.416 28.183,383.250 28.000 C 383.084 27.817,382.819 27.667,382.660 27.667 C 382.502 27.667,382.333 27.517,382.285 27.333 C 382.218 27.078,382.058 27.000,381.599 27.000 C 381.111 27.000,381.000 26.938,381.000 26.667 C 381.000 26.460,380.889 26.333,380.707 26.333 C 380.545 26.333,380.320 26.183,380.205 26.000 C 380.079 25.798,379.817 25.667,379.539 25.667 C 379.261 25.667,378.998 25.535,378.872 25.333 C 378.745 25.130,378.483 25.000,378.202 25.000 C 377.947 25.000,377.613 24.851,377.455 24.667 C 377.287 24.470,376.964 24.333,376.668 24.333 C 376.352 24.333,376.167 24.248,376.167 24.103 C 376.167 23.844,375.669 23.672,374.912 23.669 C 374.616 23.668,374.290 23.529,374.122 23.333 C 373.917 23.094,373.630 23.000,373.104 23.000 C 372.512 23.000,372.356 22.936,372.285 22.667 C 372.211 22.382,372.058 22.333,371.242 22.333 C 370.524 22.333,370.234 22.261,370.074 22.042 C 369.898 21.801,369.538 21.740,368.014 21.694 C 366.642 21.652,366.167 21.582,366.167 21.421 C 366.167 21.021,365.452 21.005,347.875 21.002 C 330.445 21.000,330.333 20.998,330.333 20.667 C 330.333 20.444,330.222 20.333,330.000 20.333 C 329.778 20.333,329.667 20.222,329.667 20.000 C 329.667 19.778,329.556 19.667,329.333 19.667 C 329.111 19.667,329.000 19.556,329.000 19.333 C 329.000 19.111,328.889 19.000,328.667 19.000 C 328.444 19.000,328.333 18.889,328.333 18.667 C 328.333 18.444,328.222 18.333,328.000 18.333 C 327.778 18.333,327.667 18.222,327.667 18.000 C 327.667 17.778,327.556 17.667,327.333 17.667 C 327.111 17.667,327.000 17.556,327.000 17.333 C 327.000 17.111,326.889 17.000,326.667 17.000 C 326.444 17.000,326.333 16.889,326.333 16.667 C 326.333 16.444,326.222 16.333,326.000 16.333 C 325.778 16.333,325.667 16.222,325.667 16.000 C 325.667 15.778,325.556 15.667,325.333 15.667 C 325.139 15.667,325.000 15.556,325.000 15.401 C 325.000 15.255,324.850 15.096,324.667 15.048 C 324.483 15.000,324.333 14.855,324.333 14.725 C 324.333 14.596,324.202 14.442,324.042 14.385 C 323.881 14.327,323.616 14.142,323.452 13.973 C 323.288 13.805,322.969 13.667,322.744 13.667 C 322.444 13.667,322.333 13.576,322.333 13.333 C 322.333 13.111,322.222 13.000,322.000 13.000 C 321.812 13.000,321.667 12.889,321.667 12.745 C 321.667 12.604,321.535 12.441,321.375 12.381 C 321.215 12.321,320.985 12.136,320.866 11.969 C 320.740 11.795,320.440 11.667,320.157 11.667 C 319.778 11.667,319.667 11.591,319.667 11.333 C 319.667 11.118,319.556 11.000,319.353 11.000 C 319.179 11.000,319.000 10.851,318.952 10.667 C 318.885 10.411,318.724 10.333,318.266 10.333 C 317.778 10.333,317.667 10.271,317.667 10.000 C 317.667 9.793,317.556 9.667,317.373 9.667 C 317.212 9.667,316.987 9.517,316.872 9.333 C 316.742 9.126,316.483 9.000,316.185 9.000 C 315.846 9.000,315.680 8.902,315.618 8.667 C 315.552 8.414,315.391 8.333,314.952 8.333 C 314.512 8.333,314.351 8.253,314.285 8.000 C 314.237 7.817,314.078 7.667,313.932 7.667 C 313.786 7.667,313.517 7.517,313.333 7.333 C 313.111 7.111,312.778 7.000,312.333 7.000 C 311.778 7.000,311.667 6.944,311.667 6.667 C 311.667 6.391,311.556 6.333,311.019 6.333 C 310.512 6.333,310.353 6.261,310.285 6.000 C 310.219 5.747,310.058 5.667,309.618 5.667 C 309.179 5.667,309.018 5.586,308.952 5.333 C 308.886 5.084,308.724 5.000,308.306 5.000 C 307.927 5.000,307.680 4.892,307.539 4.667 C 307.406 4.454,307.150 4.333,306.832 4.333 C 306.556 4.333,306.185 4.185,306.000 4.000 C 305.742 3.742,305.444 3.667,304.686 3.667 C 303.846 3.667,303.693 3.619,303.618 3.333 C 303.545 3.051,303.391 3.000,302.618 3.000 C 301.846 3.000,301.692 2.949,301.618 2.667 C 301.544 2.383,301.391 2.333,300.599 2.333 C 299.889 2.333,299.587 2.254,299.333 2.000 C 299.057 1.724,298.778 1.667,297.707 1.667 C 296.594 1.667,296.384 1.620,296.205 1.333 C 296.021 1.038,295.817 1.000,294.415 1.000 C 293.179 1.000,292.833 0.950,292.833 0.769 C 292.833 0.365,292.247 0.338,283.397 0.336 C 274.962 0.333,274.699 0.343,274.288 0.667 " stroke="none" fill="#ffffff" fill-rule="evenodd"></path><path id="path3" d="M274.288 0.667 C 273.945 0.936,273.612 1.000,272.547 1.000 C 271.460 1.000,271.167 1.058,270.872 1.333 C 270.581 1.604,270.284 1.667,269.279 1.667 C 268.297 1.667,267.958 1.735,267.621 2.000 C 267.323 2.234,266.945 2.333,266.347 2.333 C 265.703 2.333,265.428 2.414,265.211 2.667 C 265.044 2.862,264.717 3.001,264.421 3.002 C 263.664 3.006,263.167 3.178,263.167 3.436 C 263.167 3.604,262.920 3.667,262.251 3.667 C 261.517 3.667,261.295 3.732,261.128 4.000 C 260.987 4.226,260.739 4.333,260.361 4.333 C 259.942 4.333,259.780 4.417,259.715 4.667 C 259.647 4.928,259.488 5.000,258.981 5.000 C 258.556 5.000,258.219 5.114,258.000 5.333 C 257.815 5.518,257.444 5.667,257.168 5.667 C 256.850 5.667,256.594 5.787,256.461 6.000 C 256.335 6.202,256.073 6.333,255.795 6.333 C 255.517 6.333,255.254 6.465,255.128 6.667 C 255.002 6.869,254.739 7.000,254.461 7.000 C 254.183 7.000,253.921 7.131,253.795 7.333 C 253.680 7.517,253.455 7.667,253.293 7.667 C 253.132 7.667,252.850 7.817,252.667 8.000 C 252.483 8.183,252.183 8.333,252.000 8.333 C 251.778 8.333,251.667 8.444,251.667 8.667 C 251.667 8.938,251.556 9.000,251.068 9.000 C 250.609 9.000,250.448 9.078,250.382 9.333 C 250.333 9.518,250.154 9.667,249.981 9.667 C 249.808 9.667,249.517 9.817,249.333 10.000 C 249.150 10.183,248.858 10.333,248.684 10.333 C 248.511 10.333,248.324 10.449,248.270 10.591 C 248.216 10.733,247.945 10.928,247.669 11.024 C 247.393 11.120,247.167 11.269,247.167 11.354 C 247.167 11.439,246.979 11.580,246.750 11.667 C 246.521 11.754,246.333 11.939,246.333 12.079 C 246.333 12.222,246.188 12.333,246.000 12.333 C 245.778 12.333,245.667 12.444,245.667 12.667 C 245.667 12.924,245.556 13.000,245.176 13.000 C 244.893 13.000,244.593 13.128,244.468 13.303 C 244.348 13.469,244.119 13.654,243.958 13.714 C 243.798 13.774,243.667 13.938,243.667 14.078 C 243.667 14.222,243.522 14.333,243.333 14.333 C 243.111 14.333,243.000 14.444,243.000 14.667 C 243.000 14.889,242.889 15.000,242.667 15.000 C 242.444 15.000,242.333 15.111,242.333 15.333 C 242.333 15.592,242.222 15.667,241.835 15.667 C 241.517 15.667,241.261 15.787,241.128 16.000 C 240.843 16.456,239.789 16.456,239.333 16.000 C 239.072 15.739,238.778 15.667,237.977 15.667 C 237.194 15.667,236.903 15.598,236.740 15.375 C 236.562 15.130,236.196 15.074,234.472 15.027 C 232.707 14.979,232.375 14.926,232.119 14.652 C 231.646 14.147,222.042 14.160,221.583 14.667 C 221.315 14.963,221.070 15.000,219.391 15.000 C 217.722 15.000,217.461 15.039,217.167 15.333 C 216.902 15.598,216.611 15.667,215.751 15.667 C 214.850 15.667,214.635 15.722,214.461 16.000 C 214.301 16.257,214.073 16.333,213.461 16.333 C 212.850 16.333,212.622 16.409,212.461 16.667 C 212.301 16.924,212.073 17.000,211.461 17.000 C 210.850 17.000,210.622 17.076,210.461 17.333 C 210.201 17.751,208.167 17.842,208.167 17.436 C 208.167 17.174,207.667 17.006,206.875 17.002 C 206.558 17.001,206.195 16.862,206.000 16.667 C 205.781 16.448,205.444 16.333,205.019 16.333 C 204.512 16.333,204.353 16.261,204.285 16.000 C 204.211 15.718,204.058 15.667,203.285 15.667 C 202.512 15.667,202.359 15.615,202.285 15.333 C 202.211 15.051,202.058 15.000,201.285 15.000 C 200.512 15.000,200.359 14.949,200.285 14.667 C 200.212 14.386,200.058 14.333,199.306 14.333 C 198.594 14.333,198.371 14.266,198.205 14.000 C 198.030 13.719,197.817 13.667,196.851 13.667 C 195.846 13.667,195.695 13.626,195.618 13.333 C 195.545 13.052,195.391 13.000,194.639 13.000 C 193.927 13.000,193.705 12.933,193.539 12.667 C 193.364 12.387,193.150 12.333,192.205 12.333 C 191.261 12.333,191.047 12.280,190.872 12.000 C 190.696 11.718,190.483 11.667,189.499 11.667 C 188.556 11.667,188.270 11.603,188.000 11.333 C 187.739 11.072,187.444 11.000,186.643 11.000 C 185.861 11.000,185.570 10.931,185.407 10.708 C 185.231 10.467,184.870 10.407,183.324 10.360 C 181.764 10.312,181.396 10.250,181.112 9.985 C 180.827 9.720,180.515 9.667,179.238 9.667 C 177.846 9.667,177.698 9.636,177.618 9.333 C 177.538 9.025,177.391 9.000,175.659 9.000 C 174.068 9.000,173.755 8.956,173.574 8.708 C 173.386 8.451,172.973 8.410,170.076 8.362 C 167.111 8.313,166.758 8.276,166.448 7.987 C 166.127 7.688,165.815 7.667,161.796 7.667 C 157.974 7.667,157.438 7.634,157.043 7.375 C 156.364 6.930,145.871 6.930,145.379 7.375 C 145.090 7.637,144.616 7.667,140.695 7.667 C 136.601 7.667,136.314 7.686,136.010 7.990 C 135.716 8.284,135.391 8.318,132.444 8.365 C 129.635 8.410,129.158 8.456,128.879 8.708 C 128.615 8.948,128.239 9.000,126.779 9.000 C 125.222 9.000,124.958 9.042,124.667 9.333 C 124.386 9.614,124.111 9.667,122.915 9.667 C 121.703 9.667,121.455 9.715,121.211 10.000 C 120.960 10.293,120.720 10.333,119.211 10.333 C 117.703 10.333,117.462 10.373,117.211 10.667 C 116.978 10.939,116.720 11.000,115.806 11.000 C 114.898 11.000,114.644 11.059,114.466 11.314 C 114.288 11.568,113.983 11.640,112.858 11.691 C 111.782 11.740,111.423 11.819,111.258 12.044 C 111.102 12.258,110.808 12.333,110.132 12.333 C 109.430 12.333,109.148 12.411,108.917 12.667 C 108.697 12.910,108.403 13.000,107.833 13.000 C 107.263 13.000,106.970 13.090,106.750 13.333 C 106.509 13.600,106.237 13.667,105.391 13.667 C 104.556 13.667,104.263 13.737,104.000 14.000 C 103.800 14.200,103.444 14.333,103.109 14.333 C 102.763 14.333,102.437 14.460,102.250 14.667 C 102.027 14.913,101.737 15.000,101.141 15.000 C 100.556 15.000,100.242 15.092,100.000 15.333 C 99.784 15.549,99.444 15.667,99.037 15.667 C 98.598 15.667,98.334 15.768,98.167 16.000 C 97.989 16.246,97.735 16.333,97.198 16.333 C 96.609 16.333,96.452 16.397,96.382 16.667 C 96.309 16.942,96.154 17.000,95.482 17.000 C 94.850 17.000,94.623 17.074,94.461 17.333 C 94.320 17.559,94.073 17.667,93.694 17.667 C 93.276 17.667,93.114 17.750,93.048 18.000 C 92.976 18.276,92.821 18.333,92.149 18.333 C 91.517 18.333,91.290 18.407,91.128 18.667 C 90.987 18.892,90.739 19.000,90.361 19.000 C 89.942 19.000,89.780 19.084,89.715 19.333 C 89.649 19.586,89.488 19.667,89.048 19.667 C 88.609 19.667,88.448 19.747,88.382 20.000 C 88.311 20.270,88.154 20.333,87.562 20.333 C 87.036 20.333,86.750 20.427,86.545 20.667 C 86.387 20.851,86.053 21.000,85.798 21.000 C 85.517 21.000,85.255 21.130,85.128 21.333 C 85.002 21.535,84.739 21.667,84.461 21.667 C 84.183 21.667,83.921 21.798,83.795 22.000 C 83.670 22.200,83.406 22.333,83.136 22.333 C 82.885 22.333,82.589 22.471,82.468 22.644 C 82.348 22.815,82.006 23.009,81.708 23.074 C 81.407 23.140,81.167 23.298,81.167 23.430 C 81.167 23.803,80.110 23.731,79.750 23.333 C 79.501 23.059,79.237 23.000,78.244 23.000 C 77.179 23.000,77.029 22.961,76.952 22.667 C 76.873 22.364,76.724 22.333,75.349 22.333 C 74.056 22.333,73.784 22.284,73.500 22.000 C 73.193 21.693,72.944 21.667,70.318 21.667 C 67.722 21.667,67.432 21.637,67.045 21.333 C 66.384 20.813,52.990 20.813,52.545 21.333 C 52.279 21.643,52.053 21.667,49.296 21.667 C 46.556 21.667,46.308 21.692,46.000 22.000 C 45.716 22.284,45.444 22.333,44.168 22.333 C 42.850 22.333,42.644 22.373,42.461 22.667 C 42.287 22.947,42.073 23.000,41.128 23.000 C 40.183 23.000,39.969 23.053,39.795 23.333 C 39.616 23.620,39.406 23.667,38.293 23.667 C 37.222 23.667,36.943 23.724,36.667 24.000 C 36.444 24.222,36.111 24.333,35.667 24.333 C 35.222 24.333,34.889 24.444,34.667 24.667 C 34.422 24.911,34.111 25.000,33.501 25.000 C 32.850 25.000,32.624 25.072,32.461 25.333 C 32.329 25.546,32.071 25.667,31.752 25.669 C 30.997 25.672,30.500 25.845,30.500 26.103 C 30.500 26.262,30.288 26.333,29.818 26.333 C 29.276 26.333,29.118 26.402,29.048 26.667 C 28.985 26.910,28.820 27.001,28.439 27.002 C 27.665 27.006,27.167 27.176,27.167 27.436 C 27.167 27.588,26.969 27.667,26.585 27.667 C 26.183 27.667,25.938 27.770,25.795 28.000 C 25.654 28.226,25.406 28.333,25.028 28.333 C 24.609 28.333,24.447 28.417,24.382 28.667 C 24.316 28.919,24.154 29.000,23.715 29.000 C 23.276 29.000,23.114 29.081,23.048 29.333 C 22.992 29.550,22.821 29.667,22.562 29.667 C 22.343 29.667,22.035 29.817,21.878 30.000 C 21.721 30.183,21.459 30.333,21.296 30.333 C 21.133 30.333,20.850 30.483,20.667 30.667 C 20.483 30.850,20.214 31.000,20.068 31.000 C 19.922 31.000,19.763 31.150,19.715 31.333 C 19.649 31.586,19.488 31.667,19.048 31.667 C 18.609 31.667,18.448 31.747,18.382 32.000 C 18.333 32.184,18.154 32.333,17.981 32.333 C 17.778 32.333,17.667 32.451,17.667 32.667 C 17.667 32.938,17.556 33.000,17.068 33.000 C 16.609 33.000,16.448 33.078,16.382 33.333 C 16.333 33.518,16.154 33.667,15.981 33.667 C 15.778 33.667,15.667 33.785,15.667 34.000 C 15.667 34.243,15.556 34.333,15.256 34.333 C 15.031 34.333,14.712 34.471,14.548 34.640 C 14.384 34.809,14.119 34.994,13.958 35.051 C 13.798 35.109,13.667 35.271,13.667 35.411 C 13.667 35.552,13.547 35.667,13.401 35.667 C 13.255 35.667,13.096 35.817,13.048 36.000 C 13.000 36.184,12.821 36.333,12.647 36.333 C 12.444 36.333,12.333 36.451,12.333 36.667 C 12.333 36.877,12.222 37.000,12.032 37.000 C 11.866 37.000,11.397 37.337,10.990 37.750 C 9.796 38.960,9.559 39.167,9.365 39.167 C 9.264 39.167,9.133 39.429,9.072 39.750 C 8.993 40.172,8.876 40.333,8.648 40.333 C 8.444 40.333,8.333 40.451,8.333 40.667 C 8.333 40.889,8.222 41.000,8.000 41.000 C 7.778 41.000,7.667 41.111,7.667 41.333 C 7.667 41.556,7.556 41.667,7.333 41.667 C 7.111 41.667,7.000 41.778,7.000 42.000 C 7.000 42.188,6.889 42.333,6.745 42.333 C 6.604 42.333,6.441 42.465,6.381 42.625 C 6.321 42.785,6.136 43.015,5.969 43.134 C 5.795 43.260,5.667 43.560,5.667 43.843 C 5.667 44.222,5.591 44.333,5.333 44.333 C 5.118 44.333,5.000 44.444,5.000 44.647 C 5.000 44.821,4.851 45.000,4.667 45.048 C 4.411 45.115,4.333 45.276,4.333 45.734 C 4.333 46.222,4.271 46.333,4.000 46.333 C 3.756 46.333,3.667 46.444,3.667 46.750 C 3.667 47.003,3.572 47.167,3.424 47.167 C 3.280 47.167,3.138 47.398,3.075 47.735 C 3.007 48.096,2.853 48.333,2.651 48.386 C 2.418 48.447,2.333 48.618,2.333 49.031 C 2.333 49.386,2.211 49.697,2.000 49.878 C 1.761 50.083,1.667 50.370,1.667 50.896 C 1.667 51.488,1.603 51.644,1.333 51.715 C 1.083 51.780,1.000 51.942,1.000 52.364 C 1.000 52.720,0.878 53.031,0.667 53.211 C 0.382 53.455,0.333 53.703,0.333 54.915 C 0.333 55.749,0.265 56.333,0.167 56.333 C 0.057 56.333,0.000 61.722,0.000 72.167 L 0.000 88.000 200.000 88.000 L 400.000 88.000 400.000 69.917 C 400.000 57.972,399.943 51.833,399.833 51.833 C 399.742 51.833,399.666 51.402,399.664 50.875 C 399.662 49.686,399.530 49.167,399.231 49.167 C 399.072 49.167,399.000 48.954,399.000 48.484 C 399.000 47.942,398.932 47.784,398.667 47.715 C 398.391 47.643,398.333 47.488,398.333 46.815 C 398.333 46.183,398.259 45.957,398.000 45.795 C 397.774 45.654,397.667 45.406,397.667 45.028 C 397.667 44.609,397.583 44.447,397.333 44.382 C 397.081 44.316,397.000 44.154,397.000 43.715 C 397.000 43.276,396.919 43.114,396.667 43.048 C 396.414 42.982,396.333 42.821,396.333 42.382 C 396.333 41.942,396.253 41.781,396.000 41.715 C 395.816 41.667,395.667 41.488,395.667 41.314 C 395.667 41.141,395.517 40.850,395.333 40.667 C 395.150 40.483,395.000 40.214,395.000 40.068 C 395.000 39.922,394.850 39.763,394.667 39.715 C 394.433 39.654,394.333 39.488,394.333 39.157 C 394.333 38.893,394.200 38.590,394.031 38.468 C 393.864 38.348,393.679 38.119,393.619 37.958 C 393.559 37.798,393.396 37.667,393.255 37.667 C 393.111 37.667,393.000 37.522,393.000 37.333 C 393.000 37.111,392.889 37.000,392.667 37.000 C 392.409 37.000,392.333 36.889,392.333 36.509 C 392.333 36.227,392.205 35.927,392.031 35.801 C 391.864 35.681,391.679 35.452,391.619 35.292 C 391.559 35.131,391.396 35.000,391.255 35.000 C 391.115 35.000,391.000 34.880,391.000 34.734 C 391.000 34.588,390.850 34.430,390.667 34.382 C 390.483 34.334,390.333 34.184,390.333 34.048 C 390.333 33.913,390.183 33.763,390.000 33.715 C 389.817 33.667,389.667 33.517,389.667 33.382 C 389.667 33.246,389.517 33.096,389.333 33.048 C 389.150 33.000,389.000 32.850,389.000 32.715 C 389.000 32.580,388.850 32.430,388.667 32.382 C 388.483 32.334,388.333 32.184,388.333 32.048 C 388.333 31.913,388.183 31.763,388.000 31.715 C 387.817 31.667,387.667 31.517,387.667 31.382 C 387.667 31.246,387.524 31.098,387.349 31.052 C 387.174 31.007,386.993 30.826,386.948 30.651 C 386.902 30.476,386.719 30.333,386.541 30.333 C 386.364 30.333,386.083 30.183,385.917 30.000 C 385.751 29.817,385.477 29.667,385.308 29.667 C 385.111 29.667,385.000 29.546,385.000 29.333 C 385.000 29.118,384.889 29.000,384.686 29.000 C 384.512 29.000,384.333 28.851,384.285 28.667 C 384.236 28.478,384.058 28.333,383.875 28.333 C 383.697 28.333,383.416 28.183,383.250 28.000 C 383.084 27.817,382.819 27.667,382.660 27.667 C 382.502 27.667,382.333 27.517,382.285 27.333 C 382.218 27.078,382.058 27.000,381.599 27.000 C 381.111 27.000,381.000 26.938,381.000 26.667 C 381.000 26.460,380.889 26.333,380.707 26.333 C 380.545 26.333,380.320 26.183,380.205 26.000 C 380.079 25.798,379.817 25.667,379.539 25.667 C 379.261 25.667,378.998 25.535,378.872 25.333 C 378.745 25.130,378.483 25.000,378.202 25.000 C 377.947 25.000,377.613 24.851,377.455 24.667 C 377.287 24.470,376.964 24.333,376.668 24.333 C 376.352 24.333,376.167 24.248,376.167 24.103 C 376.167 23.844,375.669 23.672,374.912 23.669 C 374.616 23.668,374.290 23.529,374.122 23.333 C 373.917 23.094,373.630 23.000,373.104 23.000 C 372.512 23.000,372.356 22.936,372.285 22.667 C 372.211 22.382,372.058 22.333,371.242 22.333 C 370.524 22.333,370.234 22.261,370.074 22.042 C 369.898 21.801,369.538 21.740,368.014 21.694 C 366.642 21.652,366.167 21.582,366.167 21.421 C 366.167 21.021,365.452 21.005,347.875 21.002 C 330.445 21.000,330.333 20.998,330.333 20.667 C 330.333 20.444,330.222 20.333,330.000 20.333 C 329.778 20.333,329.667 20.222,329.667 20.000 C 329.667 19.778,329.556 19.667,329.333 19.667 C 329.111 19.667,329.000 19.556,329.000 19.333 C 329.000 19.111,328.889 19.000,328.667 19.000 C 328.444 19.000,328.333 18.889,328.333 18.667 C 328.333 18.444,328.222 18.333,328.000 18.333 C 327.778 18.333,327.667 18.222,327.667 18.000 C 327.667 17.778,327.556 17.667,327.333 17.667 C 327.111 17.667,327.000 17.556,327.000 17.333 C 327.000 17.111,326.889 17.000,326.667 17.000 C 326.444 17.000,326.333 16.889,326.333 16.667 C 326.333 16.444,326.222 16.333,326.000 16.333 C 325.778 16.333,325.667 16.222,325.667 16.000 C 325.667 15.778,325.556 15.667,325.333 15.667 C 325.139 15.667,325.000 15.556,325.000 15.401 C 325.000 15.255,324.850 15.096,324.667 15.048 C 324.483 15.000,324.333 14.855,324.333 14.725 C 324.333 14.596,324.202 14.442,324.042 14.385 C 323.881 14.327,323.616 14.142,323.452 13.973 C 323.288 13.805,322.969 13.667,322.744 13.667 C 322.444 13.667,322.333 13.576,322.333 13.333 C 322.333 13.111,322.222 13.000,322.000 13.000 C 321.812 13.000,321.667 12.889,321.667 12.745 C 321.667 12.604,321.535 12.441,321.375 12.381 C 321.215 12.321,320.985 12.136,320.866 11.969 C 320.740 11.795,320.440 11.667,320.157 11.667 C 319.778 11.667,319.667 11.591,319.667 11.333 C 319.667 11.118,319.556 11.000,319.353 11.000 C 319.179 11.000,319.000 10.851,318.952 10.667 C 318.885 10.411,318.724 10.333,318.266 10.333 C 317.778 10.333,317.667 10.271,317.667 10.000 C 317.667 9.793,317.556 9.667,317.373 9.667 C 317.212 9.667,316.987 9.517,316.872 9.333 C 316.742 9.126,316.483 9.000,316.185 9.000 C 315.846 9.000,315.680 8.902,315.618 8.667 C 315.552 8.414,315.391 8.333,314.952 8.333 C 314.512 8.333,314.351 8.253,314.285 8.000 C 314.237 7.817,314.078 7.667,313.932 7.667 C 313.786 7.667,313.517 7.517,313.333 7.333 C 313.111 7.111,312.778 7.000,312.333 7.000 C 311.778 7.000,311.667 6.944,311.667 6.667 C 311.667 6.391,311.556 6.333,311.019 6.333 C 310.512 6.333,310.353 6.261,310.285 6.000 C 310.219 5.747,310.058 5.667,309.618 5.667 C 309.179 5.667,309.018 5.586,308.952 5.333 C 308.886 5.084,308.724 5.000,308.306 5.000 C 307.927 5.000,307.680 4.892,307.539 4.667 C 307.406 4.454,307.150 4.333,306.832 4.333 C 306.556 4.333,306.185 4.185,306.000 4.000 C 305.742 3.742,305.444 3.667,304.686 3.667 C 303.846 3.667,303.693 3.619,303.618 3.333 C 303.545 3.051,303.391 3.000,302.618 3.000 C 301.846 3.000,301.692 2.949,301.618 2.667 C 301.544 2.383,301.391 2.333,300.599 2.333 C 299.889 2.333,299.587 2.254,299.333 2.000 C 299.057 1.724,298.778 1.667,297.707 1.667 C 296.594 1.667,296.384 1.620,296.205 1.333 C 296.021 1.038,295.817 1.000,294.415 1.000 C 293.179 1.000,292.833 0.950,292.833 0.769 C 292.833 0.365,292.247 0.338,283.397 0.336 C 274.962 0.333,274.699 0.343,274.288 0.667 " stroke="none" fill="#ffffff" fill-rule="evenodd"></path><path id="path4" d="M274.288 0.667 C 273.945 0.936,273.612 1.000,272.547 1.000 C 271.460 1.000,271.167 1.058,270.872 1.333 C 270.581 1.604,270.284 1.667,269.279 1.667 C 268.297 1.667,267.958 1.735,267.621 2.000 C 267.323 2.234,266.945 2.333,266.347 2.333 C 265.703 2.333,265.428 2.414,265.211 2.667 C 265.044 2.862,264.717 3.001,264.421 3.002 C 263.664 3.006,263.167 3.178,263.167 3.436 C 263.167 3.604,262.920 3.667,262.251 3.667 C 261.517 3.667,261.295 3.732,261.128 4.000 C 260.987 4.226,260.739 4.333,260.361 4.333 C 259.942 4.333,259.780 4.417,259.715 4.667 C 259.647 4.928,259.488 5.000,258.981 5.000 C 258.556 5.000,258.219 5.114,258.000 5.333 C 257.815 5.518,257.444 5.667,257.168 5.667 C 256.850 5.667,256.594 5.787,256.461 6.000 C 256.335 6.202,256.073 6.333,255.795 6.333 C 255.517 6.333,255.254 6.465,255.128 6.667 C 255.002 6.869,254.739 7.000,254.461 7.000 C 254.183 7.000,253.921 7.131,253.795 7.333 C 253.680 7.517,253.455 7.667,253.293 7.667 C 253.132 7.667,252.850 7.817,252.667 8.000 C 252.483 8.183,252.183 8.333,252.000 8.333 C 251.778 8.333,251.667 8.444,251.667 8.667 C 251.667 8.938,251.556 9.000,251.068 9.000 C 250.609 9.000,250.448 9.078,250.382 9.333 C 250.333 9.518,250.154 9.667,249.981 9.667 C 249.808 9.667,249.517 9.817,249.333 10.000 C 249.150 10.183,248.858 10.333,248.684 10.333 C 248.511 10.333,248.324 10.449,248.270 10.591 C 248.216 10.733,247.945 10.928,247.669 11.024 C 247.393 11.120,247.167 11.269,247.167 11.354 C 247.167 11.439,246.979 11.580,246.750 11.667 C 246.521 11.754,246.333 11.939,246.333 12.079 C 246.333 12.222,246.188 12.333,246.000 12.333 C 245.778 12.333,245.667 12.444,245.667 12.667 C 245.667 12.924,245.556 13.000,245.176 13.000 C 244.893 13.000,244.593 13.128,244.468 13.303 C 244.348 13.469,244.119 13.654,243.958 13.714 C 243.798 13.774,243.667 13.938,243.667 14.078 C 243.667 14.222,243.522 14.333,243.333 14.333 C 243.111 14.333,243.000 14.444,243.000 14.667 C 243.000 14.889,242.889 15.000,242.667 15.000 C 242.444 15.000,242.333 15.111,242.333 15.333 C 242.333 15.592,242.222 15.667,241.835 15.667 C 241.517 15.667,241.261 15.787,241.128 16.000 C 240.843 16.456,239.789 16.456,239.333 16.000 C 239.072 15.739,238.778 15.667,237.977 15.667 C 237.194 15.667,236.903 15.598,236.740 15.375 C 236.562 15.130,236.196 15.074,234.472 15.027 C 232.707 14.979,232.375 14.926,232.119 14.652 C 231.646 14.147,222.042 14.160,221.583 14.667 C 221.315 14.963,221.070 15.000,219.391 15.000 C 217.722 15.000,217.461 15.039,217.167 15.333 C 216.902 15.598,216.611 15.667,215.751 15.667 C 214.850 15.667,214.635 15.722,214.461 16.000 C 214.301 16.257,214.073 16.333,213.461 16.333 C 212.850 16.333,212.622 16.409,212.461 16.667 C 212.301 16.924,212.073 17.000,211.461 17.000 C 210.850 17.000,210.622 17.076,210.461 17.333 C 210.201 17.751,208.167 17.842,208.167 17.436 C 208.167 17.174,207.667 17.006,206.875 17.002 C 206.558 17.001,206.195 16.862,206.000 16.667 C 205.781 16.448,205.444 16.333,205.019 16.333 C 204.512 16.333,204.353 16.261,204.285 16.000 C 204.211 15.718,204.058 15.667,203.285 15.667 C 202.512 15.667,202.359 15.615,202.285 15.333 C 202.211 15.051,202.058 15.000,201.285 15.000 C 200.512 15.000,200.359 14.949,200.285 14.667 C 200.212 14.386,200.058 14.333,199.306 14.333 C 198.594 14.333,198.371 14.266,198.205 14.000 C 198.030 13.719,197.817 13.667,196.851 13.667 C 195.846 13.667,195.695 13.626,195.618 13.333 C 195.545 13.052,195.391 13.000,194.639 13.000 C 193.927 13.000,193.705 12.933,193.539 12.667 C 193.364 12.387,193.150 12.333,192.205 12.333 C 191.261 12.333,191.047 12.280,190.872 12.000 C 190.696 11.718,190.483 11.667,189.499 11.667 C 188.556 11.667,188.270 11.603,188.000 11.333 C 187.739 11.072,187.444 11.000,186.643 11.000 C 185.861 11.000,185.570 10.931,185.407 10.708 C 185.231 10.467,184.870 10.407,183.324 10.360 C 181.764 10.312,181.396 10.250,181.112 9.985 C 180.827 9.720,180.515 9.667,179.238 9.667 C 177.846 9.667,177.698 9.636,177.618 9.333 C 177.538 9.025,177.391 9.000,175.659 9.000 C 174.068 9.000,173.755 8.956,173.574 8.708 C 173.386 8.451,172.973 8.410,170.076 8.362 C 167.111 8.313,166.758 8.276,166.448 7.987 C 166.127 7.688,165.815 7.667,161.796 7.667 C 157.974 7.667,157.438 7.634,157.043 7.375 C 156.364 6.930,145.871 6.930,145.379 7.375 C 145.090 7.637,144.616 7.667,140.695 7.667 C 136.601 7.667,136.314 7.686,136.010 7.990 C 135.716 8.284,135.391 8.318,132.444 8.365 C 129.635 8.410,129.158 8.456,128.879 8.708 C 128.615 8.948,128.239 9.000,126.779 9.000 C 125.222 9.000,124.958 9.042,124.667 9.333 C 124.386 9.614,124.111 9.667,122.915 9.667 C 121.703 9.667,121.455 9.715,121.211 10.000 C 120.960 10.293,120.720 10.333,119.211 10.333 C 117.703 10.333,117.462 10.373,117.211 10.667 C 116.978 10.939,116.720 11.000,115.806 11.000 C 114.898 11.000,114.644 11.059,114.466 11.314 C 114.288 11.568,113.983 11.640,112.858 11.691 C 111.782 11.740,111.423 11.819,111.258 12.044 C 111.102 12.258,110.808 12.333,110.132 12.333 C 109.430 12.333,109.148 12.411,108.917 12.667 C 108.697 12.910,108.403 13.000,107.833 13.000 C 107.263 13.000,106.970 13.090,106.750 13.333 C 106.509 13.600,106.237 13.667,105.391 13.667 C 104.556 13.667,104.263 13.737,104.000 14.000 C 103.800 14.200,103.444 14.333,103.109 14.333 C 102.763 14.333,102.437 14.460,102.250 14.667 C 102.027 14.913,101.737 15.000,101.141 15.000 C 100.556 15.000,100.242 15.092,100.000 15.333 C 99.784 15.549,99.444 15.667,99.037 15.667 C 98.598 15.667,98.334 15.768,98.167 16.000 C 97.989 16.246,97.735 16.333,97.198 16.333 C 96.609 16.333,96.452 16.397,96.382 16.667 C 96.309 16.942,96.154 17.000,95.482 17.000 C 94.850 17.000,94.623 17.074,94.461 17.333 C 94.320 17.559,94.073 17.667,93.694 17.667 C 93.276 17.667,93.114 17.750,93.048 18.000 C 92.976 18.276,92.821 18.333,92.149 18.333 C 91.517 18.333,91.290 18.407,91.128 18.667 C 90.987 18.892,90.739 19.000,90.361 19.000 C 89.942 19.000,89.780 19.084,89.715 19.333 C 89.649 19.586,89.488 19.667,89.048 19.667 C 88.609 19.667,88.448 19.747,88.382 20.000 C 88.311 20.270,88.154 20.333,87.562 20.333 C 87.036 20.333,86.750 20.427,86.545 20.667 C 86.387 20.851,86.053 21.000,85.798 21.000 C 85.517 21.000,85.255 21.130,85.128 21.333 C 85.002 21.535,84.739 21.667,84.461 21.667 C 84.183 21.667,83.921 21.798,83.795 22.000 C 83.670 22.200,83.406 22.333,83.136 22.333 C 82.885 22.333,82.589 22.471,82.468 22.644 C 82.348 22.815,82.006 23.009,81.708 23.074 C 81.407 23.140,81.167 23.298,81.167 23.430 C 81.167 23.803,80.110 23.731,79.750 23.333 C 79.501 23.059,79.237 23.000,78.244 23.000 C 77.179 23.000,77.029 22.961,76.952 22.667 C 76.873 22.364,76.724 22.333,75.349 22.333 C 74.056 22.333,73.784 22.284,73.500 22.000 C 73.193 21.693,72.944 21.667,70.318 21.667 C 67.722 21.667,67.432 21.637,67.045 21.333 C 66.384 20.813,52.990 20.813,52.545 21.333 C 52.279 21.643,52.053 21.667,49.296 21.667 C 46.556 21.667,46.308 21.692,46.000 22.000 C 45.716 22.284,45.444 22.333,44.168 22.333 C 42.850 22.333,42.644 22.373,42.461 22.667 C 42.287 22.947,42.073 23.000,41.128 23.000 C 40.183 23.000,39.969 23.053,39.795 23.333 C 39.616 23.620,39.406 23.667,38.293 23.667 C 37.222 23.667,36.943 23.724,36.667 24.000 C 36.444 24.222,36.111 24.333,35.667 24.333 C 35.222 24.333,34.889 24.444,34.667 24.667 C 34.422 24.911,34.111 25.000,33.501 25.000 C 32.850 25.000,32.624 25.072,32.461 25.333 C 32.329 25.546,32.071 25.667,31.752 25.669 C 30.997 25.672,30.500 25.845,30.500 26.103 C 30.500 26.262,30.288 26.333,29.818 26.333 C 29.276 26.333,29.118 26.402,29.048 26.667 C 28.985 26.910,28.820 27.001,28.439 27.002 C 27.665 27.006,27.167 27.176,27.167 27.436 C 27.167 27.588,26.969 27.667,26.585 27.667 C 26.183 27.667,25.938 27.770,25.795 28.000 C 25.654 28.226,25.406 28.333,25.028 28.333 C 24.609 28.333,24.447 28.417,24.382 28.667 C 24.316 28.919,24.154 29.000,23.715 29.000 C 23.276 29.000,23.114 29.081,23.048 29.333 C 22.992 29.550,22.821 29.667,22.562 29.667 C 22.343 29.667,22.035 29.817,21.878 30.000 C 21.721 30.183,21.459 30.333,21.296 30.333 C 21.133 30.333,20.850 30.483,20.667 30.667 C 20.483 30.850,20.214 31.000,20.068 31.000 C 19.922 31.000,19.763 31.150,19.715 31.333 C 19.649 31.586,19.488 31.667,19.048 31.667 C 18.609 31.667,18.448 31.747,18.382 32.000 C 18.333 32.184,18.154 32.333,17.981 32.333 C 17.778 32.333,17.667 32.451,17.667 32.667 C 17.667 32.938,17.556 33.000,17.068 33.000 C 16.609 33.000,16.448 33.078,16.382 33.333 C 16.333 33.518,16.154 33.667,15.981 33.667 C 15.778 33.667,15.667 33.785,15.667 34.000 C 15.667 34.243,15.556 34.333,15.256 34.333 C 15.031 34.333,14.712 34.471,14.548 34.640 C 14.384 34.809,14.119 34.994,13.958 35.051 C 13.798 35.109,13.667 35.271,13.667 35.411 C 13.667 35.552,13.547 35.667,13.401 35.667 C 13.255 35.667,13.096 35.817,13.048 36.000 C 13.000 36.184,12.821 36.333,12.647 36.333 C 12.444 36.333,12.333 36.451,12.333 36.667 C 12.333 36.877,12.222 37.000,12.032 37.000 C 11.866 37.000,11.397 37.337,10.990 37.750 C 9.796 38.960,9.559 39.167,9.365 39.167 C 9.264 39.167,9.133 39.429,9.072 39.750 C 8.993 40.172,8.876 40.333,8.648 40.333 C 8.444 40.333,8.333 40.451,8.333 40.667 C 8.333 40.889,8.222 41.000,8.000 41.000 C 7.778 41.000,7.667 41.111,7.667 41.333 C 7.667 41.556,7.556 41.667,7.333 41.667 C 7.111 41.667,7.000 41.778,7.000 42.000 C 7.000 42.188,6.889 42.333,6.745 42.333 C 6.604 42.333,6.441 42.465,6.381 42.625 C 6.321 42.785,6.136 43.015,5.969 43.134 C 5.795 43.260,5.667 43.560,5.667 43.843 C 5.667 44.222,5.591 44.333,5.333 44.333 C 5.118 44.333,5.000 44.444,5.000 44.647 C 5.000 44.821,4.851 45.000,4.667 45.048 C 4.411 45.115,4.333 45.276,4.333 45.734 C 4.333 46.222,4.271 46.333,4.000 46.333 C 3.756 46.333,3.667 46.444,3.667 46.750 C 3.667 47.003,3.572 47.167,3.424 47.167 C 3.280 47.167,3.138 47.398,3.075 47.735 C 3.007 48.096,2.853 48.333,2.651 48.386 C 2.418 48.447,2.333 48.618,2.333 49.031 C 2.333 49.386,2.211 49.697,2.000 49.878 C 1.761 50.083,1.667 50.370,1.667 50.896 C 1.667 51.488,1.603 51.644,1.333 51.715 C 1.083 51.780,1.000 51.942,1.000 52.364 C 1.000 52.720,0.878 53.031,0.667 53.211 C 0.382 53.455,0.333 53.703,0.333 54.915 C 0.333 55.749,0.265 56.333,0.167 56.333 C 0.057 56.333,0.000 61.722,0.000 72.167 L 0.000 88.000 200.000 88.000 L 400.000 88.000 400.000 69.917 C 400.000 57.972,399.943 51.833,399.833 51.833 C 399.742 51.833,399.666 51.402,399.664 50.875 C 399.662 49.686,399.530 49.167,399.231 49.167 C 399.072 49.167,399.000 48.954,399.000 48.484 C 399.000 47.942,398.932 47.784,398.667 47.715 C 398.391 47.643,398.333 47.488,398.333 46.815 C 398.333 46.183,398.259 45.957,398.000 45.795 C 397.774 45.654,397.667 45.406,397.667 45.028 C 397.667 44.609,397.583 44.447,397.333 44.382 C 397.081 44.316,397.000 44.154,397.000 43.715 C 397.000 43.276,396.919 43.114,396.667 43.048 C 396.414 42.982,396.333 42.821,396.333 42.382 C 396.333 41.942,396.253 41.781,396.000 41.715 C 395.816 41.667,395.667 41.488,395.667 41.314 C 395.667 41.141,395.517 40.850,395.333 40.667 C 395.150 40.483,395.000 40.214,395.000 40.068 C 395.000 39.922,394.850 39.763,394.667 39.715 C 394.433 39.654,394.333 39.488,394.333 39.157 C 394.333 38.893,394.200 38.590,394.031 38.468 C 393.864 38.348,393.679 38.119,393.619 37.958 C 393.559 37.798,393.396 37.667,393.255 37.667 C 393.111 37.667,393.000 37.522,393.000 37.333 C 393.000 37.111,392.889 37.000,392.667 37.000 C 392.409 37.000,392.333 36.889,392.333 36.509 C 392.333 36.227,392.205 35.927,392.031 35.801 C 391.864 35.681,391.679 35.452,391.619 35.292 C 391.559 35.131,391.396 35.000,391.255 35.000 C 391.115 35.000,391.000 34.880,391.000 34.734 C 391.000 34.588,390.850 34.430,390.667 34.382 C 390.483 34.334,390.333 34.184,390.333 34.048 C 390.333 33.913,390.183 33.763,390.000 33.715 C 389.817 33.667,389.667 33.517,389.667 33.382 C 389.667 33.246,389.517 33.096,389.333 33.048 C 389.150 33.000,389.000 32.850,389.000 32.715 C 389.000 32.580,388.850 32.430,388.667 32.382 C 388.483 32.334,388.333 32.184,388.333 32.048 C 388.333 31.913,388.183 31.763,388.000 31.715 C 387.817 31.667,387.667 31.517,387.667 31.382 C 387.667 31.246,387.524 31.098,387.349 31.052 C 387.174 31.007,386.993 30.826,386.948 30.651 C 386.902 30.476,386.719 30.333,386.541 30.333 C 386.364 30.333,386.083 30.183,385.917 30.000 C 385.751 29.817,385.477 29.667,385.308 29.667 C 385.111 29.667,385.000 29.546,385.000 29.333 C 385.000 29.118,384.889 29.000,384.686 29.000 C 384.512 29.000,384.333 28.851,384.285 28.667 C 384.236 28.478,384.058 28.333,383.875 28.333 C 383.697 28.333,383.416 28.183,383.250 28.000 C 383.084 27.817,382.819 27.667,382.660 27.667 C 382.502 27.667,382.333 27.517,382.285 27.333 C 382.218 27.078,382.058 27.000,381.599 27.000 C 381.111 27.000,381.000 26.938,381.000 26.667 C 381.000 26.460,380.889 26.333,380.707 26.333 C 380.545 26.333,380.320 26.183,380.205 26.000 C 380.079 25.798,379.817 25.667,379.539 25.667 C 379.261 25.667,378.998 25.535,378.872 25.333 C 378.745 25.130,378.483 25.000,378.202 25.000 C 377.947 25.000,377.613 24.851,377.455 24.667 C 377.287 24.470,376.964 24.333,376.668 24.333 C 376.352 24.333,376.167 24.248,376.167 24.103 C 376.167 23.844,375.669 23.672,374.912 23.669 C 374.616 23.668,374.290 23.529,374.122 23.333 C 373.917 23.094,373.630 23.000,373.104 23.000 C 372.512 23.000,372.356 22.936,372.285 22.667 C 372.211 22.382,372.058 22.333,371.242 22.333 C 370.524 22.333,370.234 22.261,370.074 22.042 C 369.898 21.801,369.538 21.740,368.014 21.694 C 366.642 21.652,366.167 21.582,366.167 21.421 C 366.167 21.021,365.452 21.005,347.875 21.002 C 330.445 21.000,330.333 20.998,330.333 20.667 C 330.333 20.444,330.222 20.333,330.000 20.333 C 329.778 20.333,329.667 20.222,329.667 20.000 C 329.667 19.778,329.556 19.667,329.333 19.667 C 329.111 19.667,329.000 19.556,329.000 19.333 C 329.000 19.111,328.889 19.000,328.667 19.000 C 328.444 19.000,328.333 18.889,328.333 18.667 C 328.333 18.444,328.222 18.333,328.000 18.333 C 327.778 18.333,327.667 18.222,327.667 18.000 C 327.667 17.778,327.556 17.667,327.333 17.667 C 327.111 17.667,327.000 17.556,327.000 17.333 C 327.000 17.111,326.889 17.000,326.667 17.000 C 326.444 17.000,326.333 16.889,326.333 16.667 C 326.333 16.444,326.222 16.333,326.000 16.333 C 325.778 16.333,325.667 16.222,325.667 16.000 C 325.667 15.778,325.556 15.667,325.333 15.667 C 325.139 15.667,325.000 15.556,325.000 15.401 C 325.000 15.255,324.850 15.096,324.667 15.048 C 324.483 15.000,324.333 14.855,324.333 14.725 C 324.333 14.596,324.202 14.442,324.042 14.385 C 323.881 14.327,323.616 14.142,323.452 13.973 C 323.288 13.805,322.969 13.667,322.744 13.667 C 322.444 13.667,322.333 13.576,322.333 13.333 C 322.333 13.111,322.222 13.000,322.000 13.000 C 321.812 13.000,321.667 12.889,321.667 12.745 C 321.667 12.604,321.535 12.441,321.375 12.381 C 321.215 12.321,320.985 12.136,320.866 11.969 C 320.740 11.795,320.440 11.667,320.157 11.667 C 319.778 11.667,319.667 11.591,319.667 11.333 C 319.667 11.118,319.556 11.000,319.353 11.000 C 319.179 11.000,319.000 10.851,318.952 10.667 C 318.885 10.411,318.724 10.333,318.266 10.333 C 317.778 10.333,317.667 10.271,317.667 10.000 C 317.667 9.793,317.556 9.667,317.373 9.667 C 317.212 9.667,316.987 9.517,316.872 9.333 C 316.742 9.126,316.483 9.000,316.185 9.000 C 315.846 9.000,315.680 8.902,315.618 8.667 C 315.552 8.414,315.391 8.333,314.952 8.333 C 314.512 8.333,314.351 8.253,314.285 8.000 C 314.237 7.817,314.078 7.667,313.932 7.667 C 313.786 7.667,313.517 7.517,313.333 7.333 C 313.111 7.111,312.778 7.000,312.333 7.000 C 311.778 7.000,311.667 6.944,311.667 6.667 C 311.667 6.391,311.556 6.333,311.019 6.333 C 310.512 6.333,310.353 6.261,310.285 6.000 C 310.219 5.747,310.058 5.667,309.618 5.667 C 309.179 5.667,309.018 5.586,308.952 5.333 C 308.886 5.084,308.724 5.000,308.306 5.000 C 307.927 5.000,307.680 4.892,307.539 4.667 C 307.406 4.454,307.150 4.333,306.832 4.333 C 306.556 4.333,306.185 4.185,306.000 4.000 C 305.742 3.742,305.444 3.667,304.686 3.667 C 303.846 3.667,303.693 3.619,303.618 3.333 C 303.545 3.051,303.391 3.000,302.618 3.000 C 301.846 3.000,301.692 2.949,301.618 2.667 C 301.544 2.383,301.391 2.333,300.599 2.333 C 299.889 2.333,299.587 2.254,299.333 2.000 C 299.057 1.724,298.778 1.667,297.707 1.667 C 296.594 1.667,296.384 1.620,296.205 1.333 C 296.021 1.038,295.817 1.000,294.415 1.000 C 293.179 1.000,292.833 0.950,292.833 0.769 C 292.833 0.365,292.247 0.338,283.397 0.336 C 274.962 0.333,274.699 0.343,274.288 0.667 " stroke="none" fill="#ffffff" fill-rule="evenodd"></path></g></svg>